<svg width="31" height="31" viewBox="0 0 31 31" fill="none" xmlns="http://www.w3.org/2000/svg">
<path fill-rule="evenodd" clip-rule="evenodd" d="M19.3752 24.5423C19.3754 25.1941 19.1292 25.8218 18.6861 26.2997C18.2429 26.7776 17.6355 27.0703 16.9856 27.1192L16.7918 27.1257H14.2085C13.5568 27.1259 12.929 26.8797 12.4511 26.4366C11.9732 25.9934 11.6805 25.386 11.6316 24.7361L11.6252 24.5423H19.3752ZM15.5002 2.58398C17.8445 2.58395 20.0972 3.49447 21.7831 5.1235C23.469 6.75252 24.4563 8.97268 24.5367 11.3157L24.5418 11.6257V16.4875L26.8953 21.1943C26.998 21.3997 27.0494 21.6269 27.0451 21.8565C27.0408 22.0861 26.9809 22.3112 26.8705 22.5126C26.7602 22.7139 26.6027 22.8856 26.4115 23.0128C26.2203 23.14 26.0012 23.2189 25.7728 23.2429L25.6243 23.2507H5.37609C5.14638 23.2507 4.92009 23.1951 4.71659 23.0885C4.51309 22.982 4.33846 22.8277 4.20767 22.6389C4.07687 22.45 3.99381 22.2323 3.96559 22.0043C3.93738 21.7764 3.96486 21.545 4.04567 21.3299L4.10509 21.1943L6.4585 16.4875V11.6257C6.4585 9.22765 7.41111 6.92787 9.10675 5.23223C10.8024 3.53659 13.1022 2.58398 15.5002 2.58398ZM15.5002 5.16732C13.8359 5.16741 12.2359 5.80998 11.0339 6.961C9.83183 8.11203 9.12053 9.68266 9.0483 11.3454L9.04184 11.6257V16.4875C9.04185 16.8078 8.98228 17.1254 8.86617 17.4239L8.7693 17.6435L7.25805 20.6673H23.7436L22.2323 17.6422C22.089 17.3558 22.0001 17.0453 21.9701 16.7264L21.9585 16.4875V11.6257C21.9585 9.91279 21.2781 8.27009 20.0669 7.05892C18.8557 5.84775 17.213 5.16732 15.5002 5.16732Z" fill="black"/>
</svg>
