<svg width="30" height="22" viewBox="0 0 30 22" fill="none" xmlns="http://www.w3.org/2000/svg">
<path d="M25.7896 0H7.37581C6.35884 0 5.53442 0.861592 5.53442 1.9244C5.53442 2.98722 6.35884 3.84881 7.37581 3.84881H25.7896C26.8066 3.84881 27.631 2.98722 27.631 1.9244C27.631 0.861592 26.8066 0 25.7896 0Z" fill="#8E8E93"/>
<path d="M3.69308 1.92411C3.69101 1.41457 3.49565 0.92667 3.14987 0.567408C2.43167 -0.178719 1.27172 -0.178719 0.553522 0.567408C0.207688 0.92667 0.0123286 1.41457 0.0103146 1.92411C-0.0034382 2.04878 -0.0034382 2.17471 0.0103146 2.29937C0.0311452 2.42476 0.0650957 2.54738 0.111591 2.66501C0.16102 2.77897 0.219542 2.88842 0.286522 2.99216C0.352639 3.10004 0.429804 3.20005 0.516695 3.29044C0.600477 3.37764 0.693064 3.4551 0.792902 3.52137C0.889862 3.59516 0.994993 3.65656 1.10594 3.70419C1.22799 3.77034 1.35809 3.81893 1.49263 3.84852C1.61191 3.86247 1.73241 3.86247 1.8517 3.84852C2.33794 3.84894 2.80461 3.64832 3.14987 3.29044C3.23676 3.20005 3.31393 3.10004 3.38004 2.99216C3.44702 2.88842 3.50554 2.77897 3.55497 2.66501C3.61373 2.54882 3.66005 2.4262 3.69308 2.29937C3.70683 2.17471 3.70683 2.04878 3.69308 1.92411Z" fill="#8E8E93"/>
<path d="M3.69302 10.5843C3.70671 10.4596 3.70671 10.3337 3.69302 10.209C3.6612 10.0848 3.61482 9.96527 3.55491 9.853C3.5075 9.73495 3.44886 9.62213 3.37998 9.51623C3.31617 9.40954 3.23871 9.31242 3.14981 9.22756C2.43161 8.48144 1.27166 8.48144 0.553461 9.22756C0.207627 9.58683 0.0122679 10.0747 0.0102539 10.5843C0.0138216 10.8379 0.0606042 11.0887 0.148358 11.3252C0.194507 11.439 0.249979 11.5485 0.314082 11.6523C0.384112 11.7569 0.464327 11.8537 0.553461 11.941C0.634828 12.0337 0.727702 12.1147 0.829669 12.1815C0.926629 12.2554 1.0317 12.3168 1.1427 12.3643C1.25497 12.4137 1.37242 12.4493 1.49257 12.4702C1.61036 12.4978 1.73091 12.5107 1.85164 12.5087C1.97092 12.523 2.09142 12.523 2.21071 12.5087C2.32786 12.4877 2.44226 12.4521 2.55136 12.4028C2.66535 12.3556 2.77354 12.2942 2.8736 12.22C2.97557 12.1531 3.06844 12.0722 3.14981 11.9795C3.23854 11.8944 3.31599 11.7974 3.37998 11.6908C3.45076 11.5895 3.50951 11.4797 3.55491 11.3637C3.61781 11.2359 3.66425 11.1 3.69302 10.9595C3.70717 10.8349 3.70717 10.7089 3.69302 10.5843Z" fill="#8E8E93"/>
<path d="M3.69313 19.2444C3.70677 19.1198 3.70677 18.9938 3.69313 18.8692C3.66131 18.7419 3.61493 18.6192 3.55503 18.5035C3.5056 18.3896 3.44708 18.2801 3.3801 18.1764C3.31611 18.0698 3.23865 17.9728 3.14992 17.8877C2.43173 17.1416 1.27177 17.1416 0.553574 17.8877C0.464843 17.9728 0.38739 18.0698 0.323402 18.1764C0.256421 18.2801 0.1979 18.3896 0.14847 18.5035C0.10071 18.6207 0.0667016 18.7435 0.0471944 18.8692C0.0212424 18.9924 0.0089282 19.1183 0.0103668 19.2444C0.0124383 19.754 0.207797 20.2419 0.553574 20.6011C0.63494 20.6939 0.727815 20.7748 0.829782 20.8417C0.926742 20.9155 1.03182 20.9769 1.14282 21.0245C1.25508 21.0739 1.37253 21.1094 1.49268 21.1303C1.61047 21.1579 1.73102 21.1709 1.85175 21.1688C1.97104 21.1832 2.09153 21.1832 2.21082 21.1688C2.32798 21.1478 2.44237 21.1123 2.55147 21.063C2.66547 21.0157 2.77365 20.9543 2.87372 20.8802C2.97568 20.8133 3.06856 20.7324 3.14992 20.6396C3.23865 20.5546 3.31611 20.4575 3.3801 20.351C3.45093 20.2497 3.50968 20.1399 3.55503 20.0238C3.61786 19.896 3.6643 19.7602 3.69313 19.6197C3.70729 19.495 3.70729 19.3691 3.69313 19.2444Z" fill="#8E8E93"/>
<path d="M27.631 8.66016H7.37581C6.35884 8.66016 5.53442 9.52175 5.53442 10.5846C5.53442 11.6474 6.35884 12.509 7.37581 12.509H27.631C28.648 12.509 29.4724 11.6474 29.4724 10.5846C29.4724 9.52175 28.648 8.66016 27.631 8.66016Z" fill="#8E8E93"/>
<path d="M19.3448 17.3203H7.37581C6.35884 17.3203 5.53442 18.1819 5.53442 19.2447C5.53442 20.3075 6.35884 21.1691 7.37581 21.1691H19.3448C20.3617 21.1691 21.1862 20.3075 21.1862 19.2447C21.1862 18.1819 20.3617 17.3203 19.3448 17.3203Z" fill="#8E8E93"/>
</svg>
