<svg width="24" height="24" viewBox="0 0 24 24" fill="none" xmlns="http://www.w3.org/2000/svg">
<path d="M8.04545 11.6364H4.59091C3.90376 11.6364 3.24475 11.3634 2.75886 10.8775C2.27297 10.3916 2 9.73261 2 9.04545V5.59091C2 4.90376 2.27297 4.24475 2.75886 3.75886C3.24475 3.27297 3.90376 3 4.59091 3H8.04545C8.73261 3 9.39161 3.27297 9.8775 3.75886C10.3634 4.24475 10.6364 4.90376 10.6364 5.59091V9.04545C10.6364 9.73261 10.3634 10.3916 9.8775 10.8775C9.39161 11.3634 8.73261 11.6364 8.04545 11.6364ZM4.59091 4.72727C4.36186 4.72727 4.14219 4.81826 3.98023 4.98023C3.81826 5.14219 3.72727 5.36186 3.72727 5.59091V9.04545C3.72727 9.27451 3.81826 9.49417 3.98023 9.65614C4.14219 9.8181 4.36186 9.90909 4.59091 9.90909H8.04545C8.27451 9.90909 8.49417 9.8181 8.65614 9.65614C8.8181 9.49417 8.90909 9.27451 8.90909 9.04545V5.59091C8.90909 5.36186 8.8181 5.14219 8.65614 4.98023C8.49417 4.81826 8.27451 4.72727 8.04545 4.72727H4.59091ZM18.4091 11.6364H14.9545C14.2674 11.6364 13.6084 11.3634 13.1225 10.8775C12.6366 10.3916 12.3636 9.73261 12.3636 9.04545V5.59091C12.3636 4.90376 12.6366 4.24475 13.1225 3.75886C13.6084 3.27297 14.2674 3 14.9545 3H18.4091C19.0962 3 19.7553 3.27297 20.2411 3.75886C20.727 4.24475 21 4.90376 21 5.59091V9.04545C21 9.73261 20.727 10.3916 20.2411 10.8775C19.7553 11.3634 19.0962 11.6364 18.4091 11.6364ZM14.9545 4.72727C14.7255 4.72727 14.5058 4.81826 14.3439 4.98023C14.1819 5.14219 14.0909 5.36186 14.0909 5.59091V9.04545C14.0909 9.27451 14.1819 9.49417 14.3439 9.65614C14.5058 9.8181 14.7255 9.90909 14.9545 9.90909H18.4091C18.6381 9.90909 18.8578 9.8181 19.0198 9.65614C19.1817 9.49417 19.2727 9.27451 19.2727 9.04545V5.59091C19.2727 5.36186 19.1817 5.14219 19.0198 4.98023C18.8578 4.81826 18.6381 4.72727 18.4091 4.72727H14.9545ZM8.04545 22H4.59091C3.90376 22 3.24475 21.727 2.75886 21.2411C2.27297 20.7553 2 20.0962 2 19.4091V15.9545C2 15.2674 2.27297 14.6084 2.75886 14.1225C3.24475 13.6366 3.90376 13.3636 4.59091 13.3636H8.04545C8.73261 13.3636 9.39161 13.6366 9.8775 14.1225C10.3634 14.6084 10.6364 15.2674 10.6364 15.9545V19.4091C10.6364 20.0962 10.3634 20.7553 9.8775 21.2411C9.39161 21.727 8.73261 22 8.04545 22ZM4.59091 15.0909C4.36186 15.0909 4.14219 15.1819 3.98023 15.3439C3.81826 15.5058 3.72727 15.7255 3.72727 15.9545V19.4091C3.72727 19.6381 3.81826 19.8578 3.98023 20.0198C4.14219 20.1817 4.36186 20.2727 4.59091 20.2727H8.04545C8.27451 20.2727 8.49417 20.1817 8.65614 20.0198C8.8181 19.8578 8.90909 19.6381 8.90909 19.4091V15.9545C8.90909 15.7255 8.8181 15.5058 8.65614 15.3439C8.49417 15.1819 8.27451 15.0909 8.04545 15.0909H4.59091ZM18.4091 22H14.9545C14.2674 22 13.6084 21.727 13.1225 21.2411C12.6366 20.7553 12.3636 20.0962 12.3636 19.4091V15.9545C12.3636 15.2674 12.6366 14.6084 13.1225 14.1225C13.6084 13.6366 14.2674 13.3636 14.9545 13.3636H18.4091C19.0962 13.3636 19.7553 13.6366 20.2411 14.1225C20.727 14.6084 21 15.2674 21 15.9545V19.4091C21 20.0962 20.727 20.7553 20.2411 21.2411C19.7553 21.727 19.0962 22 18.4091 22ZM14.9545 15.0909C14.7255 15.0909 14.5058 15.1819 14.3439 15.3439C14.1819 15.5058 14.0909 15.7255 14.0909 15.9545V19.4091C14.0909 19.6381 14.1819 19.8578 14.3439 20.0198C14.5058 20.1817 14.7255 20.2727 14.9545 20.2727H18.4091C18.6381 20.2727 18.8578 20.1817 19.0198 20.0198C19.1817 19.8578 19.2727 19.6381 19.2727 19.4091V15.9545C19.2727 15.7255 19.1817 15.5058 19.0198 15.3439C18.8578 15.1819 18.6381 15.0909 18.4091 15.0909H14.9545Z" fill="#8E8E93"/>
</svg>
