<svg width="24" height="24" viewBox="0 0 24 24" fill="none" xmlns="http://www.w3.org/2000/svg">
<path fill-rule="evenodd" clip-rule="evenodd" d="M11.9951 17.4266C11.5811 17.4266 11.2451 17.0906 11.2451 16.6766V14.1396C11.2451 13.7256 11.5811 13.3896 11.9951 13.3896C12.4091 13.3896 12.7451 13.7256 12.7451 14.1396V16.6766C12.7451 17.0906 12.4091 17.4266 11.9951 17.4266Z" fill="#8E8E93"/>
<mask id="mask0_684_1987" style="mask-type:luminance" maskUnits="userSpaceOnUse" x="2" y="4" width="20" height="11">
<path fill-rule="evenodd" clip-rule="evenodd" d="M2.00024 4.58008H21.99V14.8911H2.00024V4.58008Z" fill="white"/>
</mask>
<g mask="url(#mask0_684_1987)">
<path fill-rule="evenodd" clip-rule="evenodd" d="M3.50024 11.3931C5.87624 12.6841 8.87224 13.3911 11.9902 13.3911C15.1142 13.3911 18.1132 12.6841 20.4902 11.3931V8.39108C20.4902 7.11608 19.4592 6.08008 18.1902 6.08008H5.81024C4.53624 6.08008 3.50024 7.11208 3.50024 8.38108V11.3931ZM11.9902 14.8911C8.44524 14.8911 5.02824 14.0331 2.37124 12.4771C2.14124 12.3431 2.00024 12.0971 2.00024 11.8301V8.38108C2.00024 6.28508 3.70924 4.58008 5.81024 4.58008H18.1902C20.2862 4.58008 21.9902 6.28908 21.9902 8.39108V11.8301C21.9902 12.0971 21.8482 12.3431 21.6192 12.4771C18.9622 14.0331 15.5422 14.8911 11.9902 14.8911Z" fill="#8E8E93"/>
</g>
<mask id="mask1_684_1987" style="mask-type:luminance" maskUnits="userSpaceOnUse" x="7" y="2" width="10" height="5">
<path fill-rule="evenodd" clip-rule="evenodd" d="M7.74512 2H16.2451V6.0759H7.74512V2Z" fill="white"/>
</mask>
<g mask="url(#mask1_684_1987)">
<path fill-rule="evenodd" clip-rule="evenodd" d="M15.4951 6.076C15.0811 6.076 14.7451 5.74 14.7451 5.326V4.96C14.7451 4.155 14.0901 3.5 13.2851 3.5H10.7051C9.90012 3.5 9.24512 4.155 9.24512 4.96V5.326C9.24512 5.74 8.90912 6.076 8.49512 6.076C8.08112 6.076 7.74512 5.74 7.74512 5.326V4.96C7.74512 3.328 9.07312 2 10.7051 2H13.2851C14.9171 2 16.2451 3.328 16.2451 4.96V5.326C16.2451 5.74 15.9091 6.076 15.4951 6.076Z" fill="#8E8E93"/>
</g>
<path fill-rule="evenodd" clip-rule="evenodd" d="M17.7951 21.74H6.19506C4.12006 21.74 2.37306 20.119 2.21606 18.049L2.02606 15.54C1.99506 15.127 2.30506 14.766 2.71806 14.735C3.13306 14.72 3.49106 15.013 3.52306 15.427L3.71206 17.935C3.81006 19.227 4.90006 20.24 6.19506 20.24H17.7951C19.0901 20.24 20.1811 19.227 20.2781 17.935L20.4681 15.427C20.5001 15.013 20.8671 14.719 21.2731 14.735C21.6861 14.766 21.9951 15.127 21.9641 15.54L21.7741 18.049C21.6171 20.119 19.8701 21.74 17.7951 21.74Z" fill="#8E8E93"/>
</svg>
