<svg width="38" height="23" viewBox="0 0 38 23" fill="none" xmlns="http://www.w3.org/2000/svg">
<path d="M1.78125 0H36.2188C36.6912 0 37.1442 0.187667 37.4783 0.521716C37.8123 0.855765 38 1.30883 38 1.78125C38 2.25367 37.8123 2.70673 37.4783 3.04078C37.1442 3.37483 36.6912 3.5625 36.2188 3.5625H1.78125C1.30883 3.5625 0.855765 3.37483 0.521716 3.04078C0.187667 2.70673 0 2.25367 0 1.78125C0 1.30883 0.187667 0.855765 0.521716 0.521716C0.855765 0.187667 1.30883 0 1.78125 0ZM7.125 11.2812C7.125 10.8088 7.31267 10.3558 7.64672 10.0217C7.98076 9.68767 8.43383 9.5 8.90625 9.5H29.0938C29.5662 9.5 30.0192 9.68767 30.3533 10.0217C30.6873 10.3558 30.875 10.8088 30.875 11.2812C30.875 11.7537 30.6873 12.2067 30.3533 12.5408C30.0192 12.8748 29.5662 13.0625 29.0938 13.0625H8.90625C8.43383 13.0625 7.98076 12.8748 7.64672 12.5408C7.31267 12.2067 7.125 11.7537 7.125 11.2812ZM14.25 20.7812C14.25 20.3088 14.4377 19.8558 14.7717 19.5217C15.1058 19.1877 15.5588 19 16.0312 19H21.9688C22.4412 19 22.8942 19.1877 23.2283 19.5217C23.5623 19.8558 23.75 20.3088 23.75 20.7812C23.75 21.2537 23.5623 21.7067 23.2283 22.0408C22.8942 22.3748 22.4412 22.5625 21.9688 22.5625H16.0312C15.5588 22.5625 15.1058 22.3748 14.7717 22.0408C14.4377 21.7067 14.25 21.2537 14.25 20.7812Z" fill="#0C0C0C"/>
</svg>
