<svg width="24" height="24" viewBox="0 0 24 24" fill="none" xmlns="http://www.w3.org/2000/svg">
<path d="M17.2281 9.78597H12.3444C11.963 9.78597 11.6467 9.46969 11.6467 9.0883C11.6467 8.7069 11.963 8.39062 12.3444 8.39062H17.2281C17.6095 8.39062 17.9258 8.7069 17.9258 9.0883C17.9258 9.46969 17.6188 9.78597 17.2281 9.78597Z" fill="#8E8E93"/>
<path d="M7.45992 10.4929C7.28317 10.4929 7.10643 10.4278 6.96689 10.2883L6.26922 9.59056C5.99945 9.32079 5.99945 8.87428 6.26922 8.60451C6.53899 8.33474 6.9855 8.33474 7.25527 8.60451L7.45992 8.80916L9.05992 7.20916C9.32968 6.93939 9.7762 6.93939 10.046 7.20916C10.3158 7.47893 10.3158 7.92544 10.046 8.19521L7.95294 10.2883C7.82271 10.4185 7.64596 10.4929 7.45992 10.4929Z" fill="#8E8E93"/>
<path d="M17.2281 16.2977H12.3444C11.963 16.2977 11.6467 15.9814 11.6467 15.6C11.6467 15.2186 11.963 14.9023 12.3444 14.9023H17.2281C17.6095 14.9023 17.9258 15.2186 17.9258 15.6C17.9258 15.9814 17.6188 16.2977 17.2281 16.2977Z" fill="#8E8E93"/>
<path d="M7.45992 17.0046C7.28317 17.0046 7.10643 16.9395 6.96689 16.8L6.26922 16.1023C5.99945 15.8325 5.99945 15.386 6.26922 15.1162C6.53899 14.8465 6.9855 14.8465 7.25527 15.1162L7.45992 15.3209L9.05992 13.7209C9.32968 13.4511 9.7762 13.4511 10.046 13.7209C10.3158 13.9906 10.3158 14.4372 10.046 14.7069L7.95294 16.8C7.82271 16.9302 7.64596 17.0046 7.45992 17.0046Z" fill="#8E8E93"/>
<path d="M14.7907 22H9.2093C4.15814 22 2 19.8419 2 14.7907V9.2093C2 4.15814 4.15814 2 9.2093 2H14.7907C19.8419 2 22 4.15814 22 9.2093V14.7907C22 19.8419 19.8419 22 14.7907 22ZM9.2093 3.39535C4.92093 3.39535 3.39535 4.92093 3.39535 9.2093V14.7907C3.39535 19.0791 4.92093 20.6047 9.2093 20.6047H14.7907C19.0791 20.6047 20.6047 19.0791 20.6047 14.7907V9.2093C20.6047 4.92093 19.0791 3.39535 14.7907 3.39535H9.2093Z" fill="#8E8E93"/>
</svg>
