<?xml version="1.0" encoding="UTF-8"?>
<svg version="1.1" xmlns="http://www.w3.org/2000/svg" width="271" height="319">
<path d="M0 0 C89.43 0 178.86 0 271 0 C271 105.27 271 210.54 271 319 C181.57 319 92.14 319 0 319 C0 213.73 0 108.46 0 0 Z " fill="#FB0101" transform="translate(0,0)"/>
<path d="M0 0 C89.43 0 178.86 0 271 0 C271 17.16 271 34.32 271 52 C237.01 52 203.02 52 168 52 C168.33 57.61 168.66 63.22 169 69 C169.66 69 170.32 69 171 69 C171 70.65 171 72.3 171 74 C170.01 74.33 169.02 74.66 168 75 C168 75.66 168 76.32 168 77 C162.25 76.25 162.25 76.25 160 74 C159.8125 71.4375 159.8125 71.4375 160 69 C160.33 68.67 160.66 68.34 161 68 C161.33 62.72 161.66 57.44 162 52 C145.83 52 129.66 52 113 52 C113.67034383 60.25916507 113.67034383 60.25916507 116 68 C116.06950541 69.54023996 116.08452357 71.08334988 116.0625 72.625 C116.05347656 73.44226563 116.04445313 74.25953125 116.03515625 75.1015625 C116.02355469 75.72804688 116.01195313 76.35453125 116 77 C114 78 114 78 112.0625 77.875 C110 77 110 77 107 72 C107 65.4 107 58.8 107 52 C72.35 52 37.7 52 2 52 C2.01160156 66.00695312 2.02320313 80.01390625 2.03515625 94.4453125 C2.04026414 103.30468768 2.04511932 112.1640618 2.04882812 121.0234375 C2.05476562 135.0937537 2.06175203 149.16406392 2.07543945 163.234375 C2.08540243 173.48093097 2.09185728 183.72748209 2.09408849 193.97404277 C2.09539285 199.40017285 2.09846139 204.82628907 2.10573006 210.2524147 C2.11251568 215.35930578 2.11461176 220.46617728 2.11310768 225.57307243 C2.11338286 227.44756998 2.1153729 229.32206817 2.11920547 231.19656181 C2.1241824 233.75623819 2.12298349 236.31584071 2.12025452 238.8755188 C2.12316736 239.61677667 2.1260802 240.35803454 2.12908131 241.12175477 C2.11711608 245.27557995 1.69261268 248.8443239 1 253 C90.1 253 179.2 253 271 253 C271 274.78 271 296.56 271 319 C181.57 319 92.14 319 0 319 C0 213.73 0 108.46 0 0 Z " fill="#F5F3F3" transform="translate(0,0)"/>
<path d="M0 0 C89.43 0 178.86 0 271 0 C271 16.5 271 33 271 50 C236.68 50 202.36 50 167 50 C166.01 42.08 165.02 34.16 164 26 C155.67192666 10.80217243 155.67192666 10.80217243 141.14453125 2.39453125 C132.28068715 0.76384226 122.73499811 1.06893871 115 6 C108.53594278 11.64380754 105.66896172 17.65519142 104 26 C103.67 33.92 103.34 41.84 103 50 C69.01 50 35.02 50 0 50 C0 33.5 0 17 0 0 Z " fill="#F6F6F6" transform="translate(0,0)"/>
<path d="M0 0 C0.79913818 0.00563965 1.59827637 0.0112793 2.42163086 0.01708984 C16.17450174 0.29938635 25.67812401 5.94928204 35.16796875 15.73828125 C44.0963093 26.7772614 45.31963517 38.66120639 44.25 52.3125 C42.69096966 60.81203289 39.03037597 67.00663531 33.25 73.3125 C32.55261719 74.10140625 31.85523438 74.8903125 31.13671875 75.703125 C22.63077806 84.79518933 12.19430435 92.13845816 0.9375 97.4375 C-6.69328454 101.04496898 -13.53011446 106.00836232 -18.40454102 112.96508789 C-18.84629166 113.59274551 -19.2880423 114.22040314 -19.74317932 114.86708069 C-20.07543015 115.34406906 -20.40768097 115.82105743 -20.75 116.3125 C-20.00941849 116.29917633 -19.26883698 116.28585266 -18.5058136 116.27212524 C-11.51740588 116.15176998 -4.52915356 116.06048578 2.46002483 116.00162697 C6.05314628 115.97034827 9.64540958 115.9279438 13.23803711 115.85986328 C16.7070079 115.79453949 20.17515488 115.75876791 23.64469337 115.74323654 C25.60859505 115.72679791 27.57216639 115.67997814 29.53556824 115.63272095 C38.19448985 115.62945322 38.19448985 115.62945322 41.18228149 117.56292725 C43.5396507 120.22727293 44.26036121 122.378121 44.8125 125.875 C44.16429589 129.83624737 43.06200626 131.50049374 40.25 134.3125 C37.26844203 135.80327899 34.5439001 135.47278651 31.2175293 135.50537109 C30.13186172 135.51763733 30.13186172 135.51763733 29.02426147 135.53015137 C26.62425567 135.55500413 24.22430901 135.57152106 21.82421875 135.5859375 C21.00485147 135.59126118 20.1854842 135.59658485 19.34128761 135.60206985 C15.00430868 135.62880106 10.66735852 135.64817593 6.33032227 135.66259766 C1.85100672 135.67924486 -2.62757297 135.72402256 -7.1066103 135.7749691 C-10.55102888 135.808628 -13.99527251 135.82017353 -17.43984032 135.82582474 C-19.09087942 135.83254113 -20.74190686 135.84777346 -22.39278603 135.87171555 C-24.70558217 135.90334303 -27.01639002 135.9034087 -29.3293457 135.89599609 C-30.64457718 135.90408295 -31.95980865 135.9121698 -33.31489563 135.92050171 C-37.62548078 135.1575429 -39.09313192 133.72563799 -41.75 130.3125 C-43.26453147 122.15196528 -41.71343026 113.96802818 -38.75 106.3125 C-39.73163422 108.24875098 -40.71022454 110.18654539 -41.6875 112.125 C-42.50541016 113.74341797 -42.50541016 113.74341797 -43.33984375 115.39453125 C-45.02259891 118.87657587 -45.87643569 121.49655275 -45.84765625 125.32421875 C-45.84443359 126.08154297 -45.84121094 126.83886719 -45.83789062 127.61914062 C-45.82951172 128.40482422 -45.82113281 129.19050781 -45.8125 130 C-45.80798828 130.79728516 -45.80347656 131.59457031 -45.79882812 132.41601562 C-45.7870585 134.38154257 -45.76912348 136.34703085 -45.75 138.3125 C-49.14099558 135.06893901 -49.93311287 133.13629569 -50.0625 128.4375 C-49.8777009 115.56876235 -44.001212 105.87426901 -35.3125 96.75390625 C-25.04613364 86.96113714 -12.85515384 79.74074557 -0.56005859 72.79882812 C7.51335492 68.1832326 13.33519501 63.47863142 16.25 54.3125 C17.32574023 46.42685643 16.75581497 40.85319915 12.25 34.3125 C12.745 33.3225 12.745 33.3225 13.25 32.3125 C20.37571268 40.4210696 20.67556314 46.83103742 20.25 57.3125 C24.21345136 51.108837 25.15066852 45.62257709 24.25 38.3125 C21.93282111 30.92784577 17.96259786 26.11817787 11.25 22.3125 C4.70220629 20.1299021 -3.97326702 20.010766 -10.3125 22.9375 C-15.83713333 26.29005527 -19.42283541 31.32836248 -21.75 37.3125 C-22.06504287 39.35069043 -22.35453927 41.39291613 -22.625 43.4375 C-23.21239536 47.25556987 -23.48074313 48.96404994 -25.875 52.0625 C-29.68995581 53.72117644 -32.66576815 54.19357421 -36.75 53.3125 C-39.75 51.6875 -39.75 51.6875 -41.75 48.3125 C-42.81815872 40.07535296 -41.85758584 32.95198185 -38.75 25.3125 C-38.75 24.9825 -38.75 24.6525 -38.75 24.3125 C-39.73163422 26.24875098 -40.71022454 28.18654539 -41.6875 30.125 C-42.23277344 31.20394531 -42.77804688 32.28289062 -43.33984375 33.39453125 C-45.56657859 38.00220693 -45.93270976 41.78274992 -45.9375 46.8125 C-45.94974609 47.48925781 -45.96199219 48.16601562 -45.97460938 48.86328125 C-45.98559396 52.57607044 -45.86344616 54.14233076 -43.75 57.3125 C-46.12304528 56.36328189 -47.48034566 55.74166817 -48.859375 53.546875 C-51.72969527 46.34589608 -49.65180066 38.21645653 -47.07421875 31.234375 C-40.20613456 16.08001815 -26.6920695 7.34907573 -11.8046875 1.0703125 C-7.82363002 0.08268443 -4.08787425 -0.02998546 0 0 Z " fill="#FDFAF9" transform="translate(205.75,93.6875)"/>
<path d="M0 0 C4.27454893 0.51589384 5.52467207 1.53336807 8.625 4.4375 C10.21142578 6.91333008 10.21142578 6.91333008 11.5703125 9.70703125 C12.08368164 10.74786865 12.59705078 11.78870605 13.12597656 12.86108398 C13.92986816 14.53859741 13.92986816 14.53859741 14.75 16.25 C15.32202148 17.41926025 15.89404297 18.58852051 16.48339844 19.79321289 C18.21389343 23.33342709 19.92096589 26.8844723 21.625 30.4375 C22.08680664 31.39688477 22.54861328 32.35626953 23.02441406 33.34472656 C25.20028446 37.86863495 27.36159064 42.3992544 29.515625 46.93359375 C31.97893244 52.10537586 34.47665956 57.25981663 36.984375 62.41015625 C37.55699066 63.58649879 37.55699066 63.58649879 38.14117432 64.78660583 C39.68032836 67.94752011 41.2199828 71.10818373 42.76281738 74.26730347 C43.84325012 76.47961953 44.921735 78.69287679 46 80.90625 C46.48215973 81.89087975 46.48215973 81.89087975 46.97406006 82.895401 C48.98504258 87.02780743 50.84395587 91.20069103 52.625 95.4375 C59.36169381 82.80608832 65.82782305 70.07345859 72.0625 57.1875 C72.8924099 55.47912677 73.72257223 53.77087614 74.55297852 52.06274414 C78.11625293 44.72602092 81.66196749 37.38157167 85.15625 30.01171875 C85.90950562 28.42375488 85.90950562 28.42375488 86.67797852 26.80371094 C87.56607047 24.92510908 88.44976991 23.04442074 89.32788086 21.16113281 C95.24925119 8.60312527 95.24925119 8.60312527 100.1875 6.25 C103.01150884 4.76097716 104.55344497 3.72711346 106.625 1.4375 C109.47824437 0.01087781 111.45954549 0.12716132 114.625 0.4375 C117.32490662 2.23743774 119.1668865 3.521273 120.625 6.4375 C121.09001283 12.01335621 119.90434894 15.87942958 117.3984375 20.7578125 C117.05938385 21.44547699 116.7203302 22.13314148 116.3710022 22.84164429 C115.25987221 25.08840732 114.1299537 27.32515368 113 29.5625 C112.21597408 31.14054465 111.43344021 32.71933141 110.65234375 34.29882812 C109.06775084 37.5005322 107.47712128 40.69911881 105.88183594 43.89550781 C102.73465687 50.21340431 99.67939977 56.57431696 96.625 62.9375 C92.85001772 70.77251424 89.06254848 78.6012689 85.2578125 86.421875 C84.8833197 87.19184814 84.5088269 87.96182129 84.12298584 88.75512695 C82.30350792 92.49567055 80.48284881 96.23563118 78.66015625 99.97460938 C78.32385193 100.66586914 77.98754761 101.35712891 77.64105225 102.06933594 C76.97230932 103.44317575 76.3019556 104.81623273 75.62994385 106.18847656 C73.87192046 109.79529464 72.17522204 113.41921673 70.54980469 117.08789062 C70.2049704 117.85462097 69.86013611 118.62135132 69.50485229 119.41131592 C68.85122482 120.87040043 68.20975532 122.33502116 67.58328247 123.80596924 C65.38950885 128.67042058 63.06787509 131.42318573 58.625 134.4375 C54.43585433 134.58448757 52.44958775 134.11204199 49.19921875 131.453125 C45.92022551 127.61187647 44.07198405 123.6403573 42 119.0625 C41.03985198 116.99902549 40.07743095 114.93660778 39.11328125 112.875 C38.5713916 111.71226562 38.02950195 110.54953125 37.47119141 109.3515625 C34.20859761 102.39995348 30.80933103 95.51336663 27.43563843 88.61523438 C25.36001967 84.37010961 23.2890872 80.12270256 21.21875 75.875 C20.61899605 74.64450928 20.61899605 74.64450928 20.00712585 73.38916016 C15.31329634 63.75304108 10.67543888 54.09036679 6.05175781 44.42041016 C3.39290783 38.86157562 0.72760898 33.30583565 -1.9375 27.75 C-2.68954712 26.18016357 -2.68954712 26.18016357 -3.45678711 24.57861328 C-5.72650894 19.84590232 -8.0053054 15.12103781 -10.375 10.4375 C-12.88621861 14.20432792 -13.02656417 17.08039408 -12.375 21.4375 C-11.19855096 24.86721537 -9.602304 28.03142329 -7.94921875 31.25390625 C-7.49075562 32.17897476 -7.03229248 33.10404327 -6.55993652 34.05714417 C-5.07513872 37.0455016 -3.56892356 40.02249489 -2.0625 43 C-1.03322089 45.06344762 -0.00563686 47.12774163 1.02026367 49.19287109 C3.01378266 53.203186 5.01374442 57.21016324 7.01953125 61.21435547 C9.89514909 66.96495156 12.69179732 72.74866557 15.4375 78.5625 C20.05171202 88.27553033 24.74041721 97.95185693 29.4375 107.625 C29.98272812 108.74881073 29.98272812 108.74881073 30.53897095 109.89532471 C34.84581769 118.77102424 39.18866397 127.6256261 43.625 136.4375 C43.955 137.0975 44.285 137.7575 44.625 138.4375 C39.89881724 136.4360622 38.46230647 133.04320444 36.25 128.625 C35.8264624 127.79967773 35.4029248 126.97435547 34.96655273 126.12402344 C27.72945532 111.90022935 20.91555878 97.4566377 14.05859375 83.046875 C13.65737305 82.20495605 13.25615234 81.36303711 12.84277344 80.49560547 C12.02464336 78.77700744 11.20892282 77.05726047 10.39550781 75.33642578 C7.52102921 69.29171897 4.56045028 63.29623225 1.55471802 57.31585693 C-0.48065543 53.26179579 -2.50230348 49.20094627 -4.52368164 45.13989258 C-5.54321779 43.10098204 -6.56918873 41.0652755 -7.60180664 39.03295898 C-9.0673847 36.14707626 -10.51017977 33.25075005 -11.94921875 30.3515625 C-12.39553146 29.4866922 -12.84184418 28.6218219 -13.30168152 27.73074341 C-15.9367586 22.35558027 -17.54523209 17.46262106 -16.375 11.4375 C-13.56053808 7.73849291 -10.35105416 5.73942609 -6.375 3.4375 C-5.92125 2.880625 -5.4675 2.32375 -5 1.75 C-3.375 0.4375 -3.375 0.4375 0 0 Z " fill="#FDF8F7" transform="translate(38.375,91.5625)"/>
<path d="M0 0 C3.16525109 3.16525109 5.72163512 6.56391015 8.25 10.25 C8.71921875 10.86101563 9.1884375 11.47203125 9.671875 12.1015625 C15.57556829 20.818192 15.25 33.04605226 15.25 43.25 C49.57 43.25 83.89 43.25 119.25 43.25 C119.25 43.91 119.25 44.57 119.25 45.25 C85.26 45.25 51.27 45.25 16.25 45.25 C16.58 50.86 16.91 56.47 17.25 62.25 C17.91 62.25 18.57 62.25 19.25 62.25 C19.25 63.9 19.25 65.55 19.25 67.25 C18.26 67.58 17.27 67.91 16.25 68.25 C16.25 68.91 16.25 69.57 16.25 70.25 C10.5 69.5 10.5 69.5 8.25 67.25 C8.0625 64.6875 8.0625 64.6875 8.25 62.25 C8.58 61.92 8.91 61.59 9.25 61.25 C9.58 55.97 9.91 50.69 10.25 45.25 C-5.92 45.25 -22.09 45.25 -38.75 45.25 C-38.07965617 53.50916507 -38.07965617 53.50916507 -35.75 61.25 C-35.68049459 62.79023996 -35.66547643 64.33334988 -35.6875 65.875 C-35.69652344 66.69226563 -35.70554687 67.50953125 -35.71484375 68.3515625 C-35.72644531 68.97804688 -35.73804687 69.60453125 -35.75 70.25 C-37.75 71.25 -37.75 71.25 -39.6875 71.125 C-41.75 70.25 -41.75 70.25 -44.75 65.25 C-44.75 58.65 -44.75 52.05 -44.75 45.25 C-79.4 45.25 -114.05 45.25 -149.75 45.25 C-149.73839844 59.25695312 -149.72679687 73.26390625 -149.71484375 87.6953125 C-149.70973586 96.55468768 -149.70488068 105.4140618 -149.70117188 114.2734375 C-149.69523438 128.3437537 -149.68824797 142.41406392 -149.67456055 156.484375 C-149.66459757 166.73093097 -149.65814272 176.97748209 -149.65591151 187.22404277 C-149.65460715 192.65017285 -149.65153861 198.07628907 -149.64426994 203.5024147 C-149.63748432 208.60930578 -149.63538824 213.71617728 -149.63689232 218.82307243 C-149.63661714 220.69756998 -149.6346271 222.57206817 -149.63079453 224.44656181 C-149.6258176 227.00623819 -149.62701651 229.56584071 -149.62974548 232.1255188 C-149.62683264 232.86677667 -149.6239198 233.60803454 -149.62091869 234.37175477 C-149.63262535 238.43581416 -149.9620429 242.2625364 -150.75 246.25 C-151.08 246.25 -151.41 246.25 -151.75 246.25 C-151.75 179.26 -151.75 112.27 -151.75 43.25 C-117.76 43.25 -83.77 43.25 -48.75 43.25 C-48.75 35.33 -48.75 27.41 -48.75 19.25 C-45.54087826 8.55292754 -42.52778469 1.91667081 -33.01171875 -3.79296875 C-22.10004009 -8.76981576 -9.7244403 -6.18828019 0 0 Z " fill="#E64F4E" transform="translate(151.75,6.75)"/>
<path d="M0 0 C4.07749967 3.82697532 3.97186592 9.41197586 4.84375 14.73046875 C4.84375 21.66046875 4.84375 28.59046875 4.84375 35.73046875 C-10.33625 35.73046875 -25.51625 35.73046875 -41.15625 35.73046875 C-41.15625 10.72395545 -41.15625 10.72395545 -33.78125 2.79296875 C-24.09377318 -6.00441938 -11.10013326 -6.53540455 0 0 Z " fill="#F4EFEF" transform="translate(153.15625,15.26953125)"/>
<path d="M0 0 C1.71447419 2.57171129 3.0064433 4.97895544 4.3203125 7.76171875 C5.0009375 9.19547852 5.0009375 9.19547852 5.6953125 10.65820312 C6.16710938 11.65787109 6.63890625 12.65753906 7.125 13.6875 C10.60916443 21.0613135 14.17738687 28.38499997 17.83686829 35.67288208 C21.89726701 43.76935255 25.85536376 51.91519405 29.8125 60.0625 C30.20362976 60.86715698 30.59475952 61.67181396 30.9977417 62.50085449 C35.73093758 72.23902254 40.4521994 81.98267811 45.125 91.75 C45.55409668 92.6457373 45.98319336 93.54147461 46.42529297 94.46435547 C48.418045 98.63699813 50.3826023 102.81985814 52.30078125 107.02734375 C52.66349121 107.8172168 53.02620117 108.60708984 53.39990234 109.42089844 C54.06315191 110.8697476 54.71916338 112.3219464 55.36572266 113.77832031 C57.08610628 117.53205807 58.76861662 120.39076902 62 123 C65.36760187 124.1716367 65.36760187 124.1716367 69 124 C72.40277812 122.20566347 72.40277812 122.20566347 75 120 C75 121.32 75 122.64 75 124 C74.01 124 73.02 124 72 124 C71.505 125.485 71.505 125.485 71 127 C70.01 127 69.02 127 68 127 C68 127.66 68 128.32 68 129 C63.54547875 131.96968084 59.09423683 131.34903947 54 130.5 C53.34 130.335 52.68 130.17 52 130 C52.33 129.34 52.66 128.68 53 128 C52.22199269 126.12279019 52.22199269 126.12279019 51 124 C50.07539699 122.09637468 49.15387664 120.1912509 48.234375 118.28515625 C47.68152832 117.13950195 47.12868164 115.99384766 46.55908203 114.81347656 C46.26503479 114.20379028 45.97098755 113.594104 45.66802979 112.96594238 C44.731921 111.02501502 43.79544808 109.08426371 42.85888672 107.14355469 C40.3152365 101.87248329 37.77230288 96.60106627 35.22949219 91.32958984 C33.52824676 87.80293825 31.82671966 84.27642279 30.125 80.75 C29.55652344 79.57187744 28.98804687 78.39375488 28.40234375 77.17993164 C24.90081968 69.92576916 21.39003636 62.67615076 17.8710022 55.4304657 C16.1493352 51.88523364 14.42968324 48.33905952 12.71533203 44.7902832 C12.05507393 43.42396145 11.39475585 42.05766868 10.734375 40.69140625 C10.41487885 40.03034378 10.09538269 39.36928131 9.76620483 38.68818665 C7.7957426 34.61933027 5.79178427 30.56885781 3.765625 26.52734375 C3.29157227 25.56892578 2.81751953 24.61050781 2.32910156 23.62304688 C1.47919694 21.90575245 0.61764286 20.19414314 -0.25878906 18.49023438 C-2.7650517 13.38123004 -3.54456178 9.69933406 -3 4 C-1.5 1.5 -1.5 1.5 0 0 Z " fill="#BD171C" transform="translate(28,101)"/>
<path d="M0 0 C3.16525109 3.16525109 5.72163512 6.56391015 8.25 10.25 C8.71921875 10.86101563 9.1884375 11.47203125 9.671875 12.1015625 C19.17594136 26.13403695 16.57588399 52.2665252 14.25 68.25 C13.26 68.25 12.27 68.25 11.25 68.25 C11.26047363 67.32364746 11.27094727 66.39729492 11.28173828 65.44287109 C11.31626007 61.93519496 11.3411091 58.42770487 11.35986328 54.91992188 C11.3697893 53.41500969 11.38333455 51.91011609 11.40087891 50.40527344 C11.51404215 40.43359501 10.90502274 31.11497809 9.25 21.25 C9.25 28.51 9.25 35.77 9.25 43.25 C8.26 43.25 7.27 43.25 6.25 43.25 C6.19392578 41.31060547 6.19392578 41.31060547 6.13671875 39.33203125 C6.01985634 24.44762861 6.01985634 24.44762861 2.25 10.25 C-3.62601673 5.93136656 -10.53879174 4.41896857 -17.75 5.25 C-24.59501258 6.57096734 -30.48669697 9.63558594 -34.75 15.25 C-38.21148637 22.10056095 -39.31742071 28.02016156 -39.140625 35.6328125 C-39.13496521 36.57309296 -39.12930542 37.51337341 -39.12347412 38.48214722 C-39.1013165 41.44697846 -39.05116127 44.41054218 -39 47.375 C-38.97990827 49.40102405 -38.96166222 51.42706729 -38.9453125 53.453125 C-38.90151969 58.38589533 -38.83263882 63.31773377 -38.75 68.25 C-39.41 68.25 -40.07 68.25 -40.75 68.25 C-42.32106608 62.65366741 -43.0887453 57.59764008 -43.15625 51.796875 C-43.16765015 51.015401 -43.17905029 50.233927 -43.1907959 49.42877197 C-43.20956306 47.78508812 -43.22271053 46.14133127 -43.23046875 44.49755859 C-43.24985038 42.0191325 -43.31198809 39.54405429 -43.375 37.06640625 C-43.51975599 26.20698189 -42.25184851 17.50571246 -34.7722168 9.0012207 C-28.75302109 3.05090735 -22.19493886 1.10634685 -13.875 1.0625 C-12.16628813 1.11361531 -10.45780414 1.17440867 -8.75 1.25 C-7.76 1.25 -6.77 1.25 -5.75 1.25 C-13.24448067 -1.92947665 -21.09424428 -3.34156945 -29.08203125 -1.09375 C-35.71511056 1.84864847 -40.38306285 7.27566747 -43.13208008 13.9465332 C-44.5443972 19.21133447 -44.3380731 24.77015457 -44.4375 30.1875 C-44.47166016 31.44369141 -44.50582031 32.69988281 -44.54101562 33.99414062 C-44.62313114 37.07933786 -44.69240299 40.16426384 -44.75 43.25 C-46.07 43.25 -47.39 43.25 -48.75 43.25 C-48.83829061 39.45848417 -48.89081946 35.66723835 -48.9375 31.875 C-48.96263672 30.81410156 -48.98777344 29.75320312 -49.01367188 28.66015625 C-49.1077426 18.43780396 -47.54905785 9.27096058 -40.21875 1.66015625 C-28.7239727 -9.02476174 -12.80475163 -8.14847831 0 0 Z " fill="#0E0B0B" transform="translate(151.75,6.75)"/>
<path d="M0 0 C34.65 0 69.3 0 105 0 C105 0.33 105 0.66 105 1 C70.68 1 36.36 1 1 1 C1 66.34 1 131.68 1 199 C89.44 199 177.88 199 269 199 C269 199.66 269 200.32 269 201 C179.9 201 90.8 201 -1 201 C-0.67 134.67 -0.34 68.34 0 0 Z " fill="#E20C09" transform="translate(2,52)"/>
<path d="M0 0 C0.33 0.66 0.66 1.32 1 2 C0.44140625 3.671875 0.44140625 3.671875 -0.4375 5.75 C-2.60610258 11.92449346 -3.0210174 18.54427581 -2 25 C-0.48022417 27.30454636 -0.48022417 27.30454636 2 29 C5.39252819 29.60051818 5.39252819 29.60051818 9.25952148 29.50170898 C9.98359192 29.50711197 10.70766235 29.51251495 11.45367432 29.51808167 C13.84323213 29.53057183 16.23158554 29.51407571 18.62109375 29.49609375 C20.28491784 29.49624875 21.94874229 29.49773789 23.61256409 29.50050354 C27.09872409 29.50188771 30.58447278 29.48932812 34.07055664 29.46655273 C38.53399399 29.43818989 42.99674682 29.44089908 47.46023464 29.45364285 C50.89612142 29.46060665 54.33185069 29.4528024 57.76771736 29.44038582 C59.41311094 29.43587657 61.05852146 29.43552992 62.70391655 29.43945122 C65.00665654 29.44236982 67.30846222 29.42582592 69.61108398 29.40405273 C71.57488258 29.39594826 71.57488258 29.39594826 73.57835388 29.38768005 C77.17845745 28.97978038 79.09286688 28.10347377 82 26 C82.495 27.98 82.495 27.98 83 30 C77.82421875 33.22265625 77.82421875 33.22265625 76 34 C74.515 33.505 74.515 33.505 73 33 C73 34.65 73 36.3 73 38 C63.19447525 38.04638693 53.38897671 38.08190153 43.58336449 38.10362434 C39.02998345 38.11405139 34.47667761 38.12819091 29.92333984 38.15087891 C25.52725106 38.17264573 21.13123451 38.18457674 16.73509598 38.18975449 C15.05980925 38.19344335 13.38452637 38.20064677 11.70927048 38.21146011 C9.35866573 38.22602612 7.00835763 38.22797582 4.65771484 38.22705078 C3.96863037 38.23424133 3.2795459 38.24143188 2.56958008 38.24884033 C-1.65543179 38.23090684 -5.06938661 37.53678368 -9 36 C-8.82984375 35.32066406 -8.6596875 34.64132813 -8.484375 33.94140625 C-7.92065487 30.51817032 -8.08970972 27.40195582 -8.25 23.9375 C-8.33114874 14.72261012 -5.75748699 7.20952183 0 0 Z " fill="#C30C10" transform="translate(167,199)"/>
<path d="M0 0 C1.32 0 2.64 0 4 0 C4 5.28 4 10.56 4 16 C8.05085679 15.75368443 8.05085679 15.75368443 12 15 C13.5899433 13.07935207 13.5899433 13.07935207 14 11 C14.99 11 15.98 11 17 11 C16.67 14.63 16.34 18.26 16 22 C18.95274099 19.04725901 20.05166572 17.07049767 21.6875 13.3125 C22.12449219 12.31863281 22.56148438 11.32476562 23.01171875 10.30078125 C23.33785156 9.54152344 23.66398437 8.78226562 24 8 C25.32 8 26.64 8 28 8 C28.88694827 15.64992887 29.18551019 23.30454972 29.3125 31 C29.34214844 31.91998779 29.37179687 32.83997559 29.40234375 33.7878418 C29.46039757 40.35094695 29.46039757 40.35094695 27.16015625 43.59375 C24.16151173 45.54585132 22.52303857 45.56368617 19 45 C13.40633245 42.04485488 13.40633245 42.04485488 12.125 38.75 C12.08375 38.1725 12.0425 37.595 12 37 C16.20131882 37.6001884 19.9924065 38.61923249 24 40 C24.02707139 37.75006641 24.04642829 35.50003905 24.0625 33.25 C24.07410156 31.99703125 24.08570313 30.7440625 24.09765625 29.453125 C24.02021027 26.71463499 23.82780815 24.58119707 23 22 C22.46375 22.804375 21.9275 23.60875 21.375 24.4375 C18.56894631 27.46508424 17.03174806 27.72510809 13 28 C11.5216774 25.04335481 11.93967217 22.25770263 12 19 C8.04 19.495 8.04 19.495 4 20 C4 23.3 4 26.6 4 30 C2.35 29.67 0.7 29.34 -1 29 C-1 26.36 -1 23.72 -1 21 C-1.763125 21.763125 -2.52625 22.52625 -3.3125 23.3125 C-4.199375 24.199375 -5.08625 25.08625 -6 26 C-6.46148437 26.54011719 -6.92296875 27.08023437 -7.3984375 27.63671875 C-10.00498432 29.85546226 -12.40727873 29.53691767 -15.70703125 29.40234375 C-19.87150802 28.67160933 -21.30011161 27.30736328 -24 24 C-24.93926722 20.96993457 -25.43143541 18.15597957 -25 15 C-23.05274446 12.42478335 -22.33697692 12.05018805 -19.0625 11.5625 C-16 12 -16 12 -13.5625 13.625 C-12 16 -12 16 -12.125 19.1875 C-12.41375 20.115625 -12.7025 21.04375 -13 22 C-13.66 22.33 -14.32 22.66 -15 23 C-15 23.66 -15 24.32 -15 25 C-12.55519921 24.81171228 -12.55519921 24.81171228 -10 24 C-8.28797092 21.51755783 -7.62784934 18.92996359 -7 16 C-5.35 16 -3.7 16 -2 16 C-1.90912109 14.39318359 -1.90912109 14.39318359 -1.81640625 12.75390625 C-1.73201463 11.35675609 -1.64736594 9.95962143 -1.5625 8.5625 C-1.52318359 7.85544922 -1.48386719 7.14839844 -1.44335938 6.41992188 C-1.11328125 1.11328125 -1.11328125 1.11328125 0 0 Z " fill="#121212" transform="translate(234,274)"/>
<path d="M0 0 C-0.64356021 4.66807757 -2.53175553 8.61511037 -4.5625 12.8125 C-4.87251953 13.46669922 -5.18253906 14.12089844 -5.50195312 14.79492188 C-7.85736855 19.73073392 -10.30636011 24.61921266 -12.7578125 29.5078125 C-17.01188069 37.99272443 -21.17200166 46.52171059 -25.3125 55.0625 C-26.05395214 56.59025208 -26.79540725 58.11800271 -27.53686523 59.64575195 C-33.4040484 71.74181536 -39.22584388 83.85922239 -45 96 C-45.93423645 92.98968256 -46.04449911 92.13349732 -45 89 C-46.485 89.495 -46.485 89.495 -48 90 C-46.28473079 83.9813335 -43.39385305 78.61189866 -40.5625 73.0625 C-36.54096742 65.10075703 -32.57964732 57.11834072 -28.75 49.0625 C-28.3180835 48.15854492 -27.88616699 47.25458984 -27.44116211 46.32324219 C-25.29721957 41.83451761 -23.15988879 37.34287129 -21.04199219 32.84179688 C-19.26993942 29.07659921 -17.48504074 25.31768903 -15.69348145 21.56173706 C-14.98633004 20.07312801 -14.28370022 18.58236182 -13.58581543 17.08938599 C-12.6026429 14.98746655 -11.60388402 12.89362275 -10.6015625 10.80078125 C-10.31231903 10.17262512 -10.02307556 9.54446899 -9.72506714 8.89727783 C-7.75529191 4.83823311 -5.01410639 0 0 0 Z " fill="#FEDFE0" transform="translate(140,98)"/>
<path d="M0 0 C5.41761672 8.12642508 4.18062155 20.44739416 4.1875 29.875 C4.18830566 30.94443848 4.18911133 32.01387695 4.18994141 33.11572266 C4.14977027 38.83162856 3.85137469 44.34687206 3 50 C3.99 50 4.98 50 6 50 C6.33 41.75 6.66 33.5 7 25 C41.32 25 75.64 25 111 25 C111 25.66 111 26.32 111 27 C77.01 27 43.02 27 8 27 C8.495 35.415 8.495 35.415 9 44 C9.66 44 10.32 44 11 44 C11 45.65 11 47.3 11 49 C10.01 49.33 9.02 49.66 8 50 C8 50.66 8 51.32 8 52 C2.25 51.25 2.25 51.25 0 49 C-0.1875 46.4375 -0.1875 46.4375 0 44 C0.33 43.67 0.66 43.34 1 43 C1.33 37.72 1.66 32.44 2 27 C-14.17 27 -30.34 27 -47 27 C-46.32965617 35.25916507 -46.32965617 35.25916507 -44 43 C-43.93049459 44.54023996 -43.91547643 46.08334988 -43.9375 47.625 C-43.94652344 48.44226563 -43.95554687 49.25953125 -43.96484375 50.1015625 C-43.97644531 50.72804687 -43.98804687 51.35453125 -44 52 C-46 53 -46 53 -47.9375 52.875 C-50.93734103 51.60234017 -51.70584313 49.92888134 -53 47 C-52.8125 44.75 -52.8125 44.75 -52 43 C-51.01 42.505 -51.01 42.505 -50 42 C-49.67 44.64 -49.34 47.28 -49 50 C-48.34 50 -47.68 50 -47 50 C-47.33 42.08 -47.66 34.16 -48 26 C-31.83 25.67 -15.66 25.34 1 25 C0.505 12.625 0.505 12.625 0 0 Z " fill="#DA4343" transform="translate(160,25)"/>
<path d="M0 0 C3.5 0.375 3.5 0.375 6.5 3.375 C3.53 2.715 0.56 2.055 -2.5 1.375 C-2.5 2.365 -2.5 3.355 -2.5 4.375 C-3.139375 4.973125 -3.77875 5.57125 -4.4375 6.1875 C-6.97334819 8.87703596 -7.17116942 10.75786362 -7.5 14.375 C-8.49 13.055 -9.48 11.735 -10.5 10.375 C-13.01121861 14.14182792 -13.15156417 17.01789408 -12.5 21.375 C-11.32355096 24.80471537 -9.727304 27.96892329 -8.07421875 31.19140625 C-7.61575562 32.11647476 -7.15729248 33.04154327 -6.68493652 33.99464417 C-5.20013872 36.9830016 -3.69392356 39.95999489 -2.1875 42.9375 C-1.15822089 45.00094762 -0.13063686 47.06524163 0.89526367 49.13037109 C2.88878266 53.140686 4.88874442 57.14766324 6.89453125 61.15185547 C9.77014909 66.90245156 12.56679732 72.68616557 15.3125 78.5 C19.92671202 88.21303033 24.61541721 97.88935693 29.3125 107.5625 C29.85772812 108.68631073 29.85772812 108.68631073 30.41397095 109.83282471 C34.72081769 118.70852424 39.06366397 127.5631261 43.5 136.375 C43.83 137.035 44.16 137.695 44.5 138.375 C39.77381724 136.3735622 38.33730647 132.98070444 36.125 128.5625 C35.7014624 127.73717773 35.2779248 126.91185547 34.84155273 126.06152344 C27.60445532 111.83772935 20.79055878 97.3941377 13.93359375 82.984375 C13.53237305 82.14245605 13.13115234 81.30053711 12.71777344 80.43310547 C11.89964336 78.71450744 11.08392282 76.99476047 10.27050781 75.27392578 C7.39602921 69.22921897 4.43545028 63.23373225 1.42971802 57.25335693 C-0.60565543 53.19929579 -2.62730348 49.13844627 -4.64868164 45.07739258 C-5.66821779 43.03848204 -6.69418873 41.0027755 -7.72680664 38.97045898 C-9.1923847 36.08457626 -10.63517977 33.18825005 -12.07421875 30.2890625 C-12.52053146 29.4241922 -12.96684418 28.5593219 -13.42668152 27.66824341 C-16.0617586 22.29308027 -17.67023209 17.40012106 -16.5 11.375 C-13.68553808 7.67599291 -10.47605416 5.67692609 -6.5 3.375 C-6.04625 2.818125 -5.5925 2.26125 -5.125 1.6875 C-3.5 0.375 -3.5 0.375 0 0 Z " fill="#FDC9CA" transform="translate(38.5,91.625)"/>
<path d="M0 0 C6.22111234 3.78328887 10.38820318 9.51549931 12.5 16.4375 C13.24646863 22.85505669 12.61815848 27.7786198 9.5 33.4375 C8.52639705 34.46321795 7.53127087 35.46978083 6.5 36.4375 C6.53480469 35.50808594 6.56960937 34.57867187 6.60546875 33.62109375 C6.88006028 24.09381321 6.88006028 24.09381321 3.5 15.4375 C3.0875 14.695 2.675 13.9525 2.25 13.1875 C-0.26748823 10.67001177 -3.23104783 9.79016986 -6.5 8.4375 C-7.2425 7.715625 -7.985 6.99375 -8.75 6.25 C-13.9091163 2.84967335 -20.28490867 4.13714863 -26.1875 4.9375 C-26.950625 5.1025 -27.71375 5.2675 -28.5 5.4375 C-21.21305321 -2.47404223 -10.08434975 -4.54478432 0 0 Z " fill="#C31015" transform="translate(218.5,115.5625)"/>
<path d="M0 0 C0.99 0.33 1.98 0.66 3 1 C3 2.65 3 4.3 3 6 C4.65 6.33 6.3 6.66 8 7 C8.33 7.99 8.66 8.98 9 10 C6.69 10 4.38 10 2 10 C2 10.99 2 11.98 2 13 C2.99 13.33 3.98 13.66 5 14 C4.42415568 16.38564077 3.77772405 18.66682784 3 21 C6.3 20.01 9.6 19.02 13 18 C12 23 12 23 10.25 24.3125 C7.72491331 25.08405427 5.62610707 25.14589484 3 25 C3.33 26.98 3.66 28.96 4 31 C2.68 31.33 1.36 31.66 0 32 C-0.165 31.071875 -0.33 30.14375 -0.5 29.1875 C-1.62702923 25.94909392 -1.62702923 25.94909392 -3.87890625 25.0390625 C-5.3130453 24.56187133 -6.76193877 24.12657324 -8.22265625 23.73828125 C-8.80917969 23.49464844 -9.39570312 23.25101562 -10 23 C-10.33 22.01 -10.66 21.02 -11 20 C-10.01 18.515 -10.01 18.515 -9 17 C-8.34 17 -7.68 17 -7 17 C-7.515625 16.4225 -8.03125 15.845 -8.5625 15.25 C-10 13 -10 13 -9.875 10.875 C-9 9 -9 9 -6 7 C-4.68 7 -3.36 7 -2 7 C-2.04125 6.21625 -2.0825 5.4325 -2.125 4.625 C-2 2 -2 2 0 0 Z " fill="#131313" transform="translate(116,275)"/>
<path d="M0 0 C-0.41573744 3.22196513 -1.34099732 5.80131708 -2.75 8.6875 C-5.27377683 14.13112082 -6.72366046 19.83259723 -8.24902344 25.6159668 C-9.28561437 29.52922357 -10.37699973 33.27752232 -12 37 C-13.77734375 36.921875 -13.77734375 36.921875 -16 36 C-17.37419701 33.74217954 -18.48508012 31.64211426 -19.5625 29.25 C-21.92823974 24.16037548 -21.92823974 24.16037548 -24.703125 19.28515625 C-26.48733854 16.14128601 -26.20858678 13.54597523 -26 10 C-24.68 10 -23.36 10 -22 10 C-19.69 14.29 -17.38 18.58 -15 23 C-14.2575 21.185 -13.515 19.37 -12.75 17.5 C-5.43595041 0 -5.43595041 0 0 0 Z " fill="#0E0E0E" transform="translate(166,268)"/>
<path d="M0 0 C1.32 0 2.64 0 4 0 C3.59133603 3.26931177 2.66741224 5.75631151 1.1171875 8.6171875 C-1.1094639 12.98853994 -2.41065566 17.38745924 -3.625 22.125 C-4.03243575 23.66964567 -4.44126199 25.21392532 -4.8515625 26.7578125 C-5.04266602 27.48000977 -5.23376953 28.20220703 -5.43066406 28.94628906 C-6.18485589 31.66681293 -7.07174058 34.33444773 -8 37 C-9.32 37 -10.64 37 -12 37 C-13.27339482 34.48043257 -14.54376642 31.95941351 -15.8125 29.4375 C-16.16892578 28.73302734 -16.52535156 28.02855469 -16.89257812 27.30273438 C-23.11683611 14.91132168 -23.11683611 14.91132168 -22.6875 11.5625 C-22.460625 11.046875 -22.23375 10.53125 -22 10 C-20.234375 10.08984375 -20.234375 10.08984375 -18 11 C-16.56741392 13.19255552 -15.39517726 15.23036862 -14.25 17.5625 C-13.93417969 18.17802734 -13.61835938 18.79355469 -13.29296875 19.42773438 C-12.51638111 20.94561021 -11.75654439 22.47203534 -11 24 C-10.7733667 23.41508789 -10.5467334 22.83017578 -10.31323242 22.22753906 C-9.27773531 19.56581261 -8.23272857 16.90791924 -7.1875 14.25 C-6.83107422 13.32960938 -6.47464844 12.40921875 -6.10742188 11.4609375 C-5.75615234 10.57148438 -5.40488281 9.68203125 -5.04296875 8.765625 C-4.72352295 7.94868164 -4.40407715 7.13173828 -4.07495117 6.29003906 C-2.9301591 3.85121334 -1.86281769 1.95448682 0 0 Z " fill="#0C0C0C" transform="translate(31,268)"/>
<path d="M0 0 C0.33 0.66 0.66 1.32 1 2 C0.01789629 4.0088485 -0.98440599 6.00787329 -2 8 C-3.0348843 12.01451763 -3.22843744 15.9257374 -3.3125 20.0625 C-3.34988281 21.27035156 -3.38726562 22.47820312 -3.42578125 23.72265625 C-3.26219006 27.04991598 -3.26219006 27.04991598 -1.23046875 29.40625 C1.13607992 31.09723399 2.14035798 31.52127857 5 31.4375 C5.66 31.43621094 6.32 31.43492187 7 31.43359375 C9.7275089 30.84227834 11.03858108 29.99509135 13 28 C13.84076821 25.11914604 13.84076821 25.11914604 14.125 21.9375 C14.80742779 16.19257221 14.80742779 16.19257221 17 14 C18.0618048 26.30345239 18.0618048 26.30345239 15.58203125 30.265625 C12.16763147 33.26505509 10.68207759 34 6 34 C6 34.66 6 35.32 6 36 C2.81388167 36.91676046 -0.18808268 37.25671724 -3.5 37.375 C-4.4384375 37.42398438 -5.376875 37.47296875 -6.34375 37.5234375 C-9 37 -9 37 -11.31640625 34.93359375 C-14.75024815 28.95026367 -13.9418472 20.79968069 -12.31640625 14.2421875 C-11.5 12.0625 -11.5 12.0625 -10 9 C-9 12 -9 12 -9.9375 15 C-11.78587375 20.95024425 -12.17181369 27.50989591 -9.5 33.1875 C-9.005 33.785625 -8.51 34.38375 -8 35 C-8.33 34.34 -8.66 33.68 -9 33 C-10.13230975 20.35048247 -7.72660472 10.30213962 0 0 Z " fill="#CB161B" transform="translate(168,115)"/>
<path d="M0 0 C2.08203125 1.0703125 2.08203125 1.0703125 3.08203125 3.0703125 C2.31890625 2.9053125 1.55578125 2.7403125 0.76953125 2.5703125 C-8.47302884 1.31708401 -17.00982647 1.32029814 -25.078125 6.44140625 C-30.79552276 10.89777049 -34.16234875 16.04019936 -35.91796875 23.0703125 C-36.73692814 30.03947019 -36.86817508 37.05916828 -36.91796875 44.0703125 C-37.57796875 44.0703125 -38.23796875 44.0703125 -38.91796875 44.0703125 C-39.06464253 39.61233206 -39.1525025 35.15498196 -39.23046875 30.6953125 C-39.27236328 29.44363281 -39.31425781 28.19195312 -39.35742188 26.90234375 C-39.48042812 17.50466652 -37.98740336 10.87964432 -31.85546875 3.6328125 C-30.89640625 2.859375 -30.89640625 2.859375 -29.91796875 2.0703125 C-29.27859375 1.5340625 -28.63921875 0.9978125 -27.98046875 0.4453125 C-19.23255056 -5.38663296 -9.2945251 -3.59015991 0 0 Z " fill="#E7E6E6" transform="translate(145.91796875,6.9296875)"/>
<path d="M0 0 C0.268125 0.825 0.53625 1.65 0.8125 2.5 C1.90646567 5.72431986 3.08636342 8.89641959 4.31640625 12.0703125 C5.00971719 14.02743024 5.52845516 15.97909355 6 18 C4.68 18 3.36 18 2 18 C-2 12.88888889 -2 12.88888889 -2 10 C-2.66 10 -3.32 10 -4 10 C-4.268125 10.598125 -4.53625 11.19625 -4.8125 11.8125 C-6.05646632 14.1040169 -6.87633118 15.4830937 -9 17 C-12.125 17.25 -12.125 17.25 -15 17 C-16 16 -16 16 -16.3125 13.3125 C-15.91250427 9.07254531 -14.74743995 7.24057019 -12 4 C-8.26522484 1.1325423 -4.80215038 -0.58207883 0 0 Z " fill="#0D0D0D" transform="translate(180,286)"/>
<path d="M0 0 C0.18175781 0.74765625 0.36351563 1.4953125 0.55078125 2.265625 C0.80214844 3.25046875 1.05351563 4.2353125 1.3125 5.25 C1.67794922 6.71179688 1.67794922 6.71179688 2.05078125 8.203125 C3.00012145 11.00035786 4.21589625 12.68877469 6 15 C5.6875 17.25 5.6875 17.25 5 19 C1.22699642 17.9802693 0.19793856 17.34127338 -1.8125 13.875 C-2.204375 12.92625 -2.59625 11.9775 -3 11 C-3.44730469 11.433125 -3.89460938 11.86625 -4.35546875 12.3125 C-9.33449876 16.89872807 -9.33449876 16.89872807 -12.875 17.4375 C-15 17 -15 17 -16 16 C-16.43445594 12.26367891 -16.13273801 10.26547601 -14.4375 6.875 C-10.38547004 2.09568261 -6.41900492 -0.2862678 0 0 Z " fill="#0B0B0B" transform="translate(49,286)"/>
<path d="M0 0 C0.33 0.66 0.66 1.32 1 2 C0.44140625 3.671875 0.44140625 3.671875 -0.4375 5.75 C-2.60610258 11.92449346 -3.0210174 18.54427581 -2 25 C0.24958844 28.07074154 1.45417452 28.9129027 5.25238037 29.51898193 C7.18431244 29.5323056 7.18431244 29.5323056 9.15527344 29.54589844 C9.86786819 29.55623611 10.58046295 29.56657379 11.31465149 29.57722473 C13.66312329 29.60665349 16.0107333 29.60815183 18.359375 29.609375 C19.99035282 29.62435671 21.62131547 29.64108384 23.2522583 29.65948486 C27.53974097 29.70317214 31.827019 29.72316037 36.11468506 29.73822021 C40.49194446 29.75778644 44.86898269 29.79975695 49.24609375 29.83984375 C57.83067132 29.91516073 66.41516206 29.965443 75 30 C73 32 73 32 70.12893677 32.24723816 C68.90190033 32.24581314 67.67486389 32.24438812 66.41064453 32.24291992 C65.3957193 32.24576744 65.3957193 32.24576744 64.36029053 32.24867249 C62.11768094 32.25238494 59.87539345 32.24166737 57.6328125 32.23046875 C56.07583657 32.2292768 54.51885991 32.22882382 52.96188354 32.2290802 C49.69508374 32.22751438 46.42839336 32.21921902 43.16162109 32.20581055 C38.97621768 32.18884873 34.79093493 32.1849954 30.60550117 32.18575573 C27.38844656 32.18548357 24.17141826 32.17999455 20.95437241 32.17275429 C19.4114184 32.16957373 17.86846141 32.16760164 16.3255043 32.16686058 C14.16633293 32.16468893 12.00728855 32.15592607 9.84814453 32.14526367 C8.61951691 32.14145187 7.39088928 32.13764008 6.12503052 32.13371277 C-0.13202587 31.86598792 -0.13202587 31.86598792 -2.70703125 29.296875 C-5.04627734 25.14135626 -4.72049126 20.69574685 -5 16 C-5.33 20.95 -5.66 25.9 -6 31 C-6.66 31 -7.32 31 -8 31 C-8.72649286 19.18238282 -7.67675294 9.61282553 0 0 Z " fill="#B33135" transform="translate(167,199)"/>
<path d="M0 0 C2.4375 1.625 2.4375 1.625 4 4 C3.875 7.1875 3.875 7.1875 3 10 C2.01 10.495 2.01 10.495 1 11 C1 11.66 1 12.32 1 13 C5.24822374 12.52797514 7.19989709 10.03344482 10 7 C10.99 7.33 11.98 7.66 13 8 C11.64995627 12.41832494 10.00638894 14.64842388 6 17 C1.90907157 17.65982717 -0.38201823 17.80899088 -4.0703125 15.96484375 C-6.9719488 13.85616474 -8.7163122 12.22725809 -9.5390625 8.66796875 C-9.62423168 6.27161762 -9.6388011 4.31449675 -9 2 C-5.50875983 -0.32749345 -4.10777749 -0.50299316 0 0 Z " fill="#1C1C1C" transform="translate(86,286)"/>
<path d="M0 0 C0.495 0.99 0.495 0.99 1 2 C-0.06685842 4.60787613 -1.19937068 7.09912598 -2.4375 9.625 C-2.75654297 10.29273437 -3.07558594 10.96046875 -3.40429688 11.6484375 C-5.8013687 16.63361913 -8.28673551 21.57470476 -10.765625 26.51953125 C-15.01637657 35.00085578 -19.1740487 43.52593312 -23.3125 52.0625 C-24.05395214 53.59025208 -24.79540725 55.11800271 -25.53686523 56.64575195 C-31.4040484 68.74181536 -37.22584388 80.85922239 -43 93 C-44.27387146 90.0723146 -43.98638431 88.96389281 -42.83862305 85.92016602 C-42.24184526 84.69208049 -41.63184116 83.47037079 -41.01171875 82.25390625 C-40.51680939 81.24756134 -40.51680939 81.24756134 -40.01190186 80.22088623 C-38.91465006 77.99585228 -37.8010522 75.77941488 -36.6875 73.5625 C-35.91616661 72.00541136 -35.14608545 70.44770183 -34.37719727 68.8894043 C-32.75696199 65.60808537 -31.13115765 62.32960845 -29.50195312 59.05273438 C-27.02094232 54.05349519 -24.57548072 49.03747822 -22.140625 44.015625 C-21.74506912 43.19992538 -21.34951324 42.38422577 -20.94197083 41.54380798 C-20.15595711 39.92233449 -19.37009186 38.30078902 -18.5843811 36.6791687 C-13.9394664 27.09406506 -9.27838813 17.51739028 -4.53515625 7.98046875 C-4.02413612 6.94833 -4.02413612 6.94833 -3.50279236 5.89533997 C-1.11724364 1.11724364 -1.11724364 1.11724364 0 0 Z " fill="#A13C3E" transform="translate(138,101)"/>
<path d="M0 0 C0.66 0.33 1.32 0.66 2 1 C1.00414666 3.90457226 0.01591856 5.98048692 -1.9375 8.375 C-7.69913295 15.70798739 -7.52158171 22.89732351 -7.6875 31.9375 C-7.72166016 33.19369141 -7.75582031 34.44988281 -7.79101562 35.74414062 C-7.87313114 38.82933786 -7.94240299 41.91426384 -8 45 C-9.32 45 -10.64 45 -12 45 C-12.08829061 41.20848417 -12.14081946 37.41723835 -12.1875 33.625 C-12.21263672 32.56410156 -12.23777344 31.50320312 -12.26367188 30.41015625 C-12.36754449 19.12266497 -10.20544546 10.44205661 -2.25 2.125 C-1.5075 1.42375 -0.765 0.7225 0 0 Z " fill="#292828" transform="translate(115,5)"/>
<path d="M0 0 C5.88593299 3.42205406 8.98225598 7.4449272 12.3125 13.3125 C14.11794316 20.37014143 13.49772687 26.65227347 10 33 C9.02639705 34.02571795 8.03127087 35.03228083 7 36 C7.05220703 34.60587891 7.05220703 34.60587891 7.10546875 33.18359375 C7.35637986 23.66267731 7.35637986 23.66267731 4 15 C3.443125 14.030625 2.88625 13.06125 2.3125 12.0625 C1.879375 11.381875 1.44625 10.70125 1 10 C1.99 10 2.98 10 4 10 C4 8.68 4 7.36 4 6 C3.34 6 2.68 6 2 6 C1.34 4.02 0.68 2.04 0 0 Z " fill="#B7232A" transform="translate(218,116)"/>
<path d="M0 0 C1.32 0.33 2.64 0.66 4 1 C4.02505615 1.67466309 4.0501123 2.34932617 4.07592773 3.04443359 C4.1932631 6.15475193 4.31535527 9.26486696 4.4375 12.375 C4.47681641 13.43589844 4.51613281 14.49679687 4.55664062 15.58984375 C4.81593174 22.09206713 5.26216036 28.53417092 6 35 C4.0625 35.5625 4.0625 35.5625 2 36 C-0.52480038 33.47519962 0.00056499 28.01674682 -0.11352539 24.63500977 C-0.10828857 23.49862061 -0.10305176 22.36223145 -0.09765625 21.19140625 C-0.09443359 19.95068359 -0.09121094 18.70996094 -0.08789062 17.43164062 C-0.07951172 16.15482422 -0.07113281 14.87800781 -0.0625 13.5625 C-0.05798828 12.25861328 -0.05347656 10.95472656 -0.04882812 9.61132812 C-0.03709251 6.40750448 -0.02067363 3.20377637 0 0 Z " fill="#050505" transform="translate(55,268)"/>
<path d="M0 0 C0.99 0.33 1.98 0.66 3 1 C3 2.65 3 4.3 3 6 C3.99 4.02 4.98 2.04 6 0 C7.32 0.33 8.64 0.66 10 1 C10.99 5.29 11.98 9.58 13 14 C9 14 9 14 7.25 12.5 C6.8375 12.005 6.425 11.51 6 11 C5.236875 11.515625 4.47375 12.03125 3.6875 12.5625 C2.800625 13.036875 1.91375 13.51125 1 14 C0.01 13.67 -0.98 13.34 -2 13 C-2.05416188 11.39620659 -2.09286638 9.79188594 -2.125 8.1875 C-2.14820313 7.29417969 -2.17140625 6.40085937 -2.1953125 5.48046875 C-2 3 -2 3 0 0 Z " fill="#101010" transform="translate(64,290)"/>
<path d="M0 0 C0.7425 0.0825 1.485 0.165 2.25 0.25 C1.90354088 3.3681321 1.23874751 4.26036414 -1.125 6.4375 C-4.48692182 10.03955909 -5.49461711 13.5652785 -6.75 18.25 C-8.4 17.92 -10.05 17.59 -11.75 17.25 C-13.08583899 12.40758367 -14.00328119 8.31562383 -13.75 3.25 C-12.6775 3.4975 -11.605 3.745 -10.5 4 C-9.2625 4.0825 -8.025 4.165 -6.75 4.25 C-2.32003257 0.21091205 -2.32003257 0.21091205 0 0 Z " fill="#0C0C0C" transform="translate(199.75,285.75)"/>
<path d="M0 0 C0.99 1.98 0.99 1.98 2 4 C-3.17578125 7.22265625 -3.17578125 7.22265625 -5 8 C-5.99 7.67 -6.98 7.34 -8 7 C-8 8.65 -8 10.3 -8 12 C-17.80552475 12.04638693 -27.61102329 12.08190153 -37.41663551 12.10362434 C-41.97001655 12.11405139 -46.52332239 12.12819091 -51.07666016 12.15087891 C-55.47274894 12.17264573 -59.86876549 12.18457674 -64.26490402 12.18975449 C-65.94019075 12.19344335 -67.61547363 12.20064677 -69.29072952 12.21146011 C-71.64133427 12.22602612 -73.99164237 12.22797582 -76.34228516 12.22705078 C-77.37591187 12.23783661 -77.37591187 12.23783661 -78.43041992 12.24884033 C-82.65543179 12.23090684 -86.06938661 11.53678368 -90 10 C-89.67 8.68 -89.34 7.36 -89 6 C-84.125 7.75 -84.125 7.75 -83 10 C-58.91 10 -34.82 10 -10 10 C-10.99 9.34 -11.98 8.68 -13 8 C-12.22914063 7.59007812 -11.45828125 7.18015625 -10.6640625 6.7578125 C-9.66117187 6.21898437 -8.65828125 5.68015625 -7.625 5.125 C-6.62726563 4.59132812 -5.62953125 4.05765625 -4.6015625 3.5078125 C-1.94651605 2.1179862 -1.94651605 2.1179862 0 0 Z " fill="#F00C0E" transform="translate(248,225)"/>
<path d="M0 0 C0.66 0.33 1.32 0.66 2 1 C1.67 1.99 1.34 2.98 1 4 C0.360625 4.28875 -0.27875 4.5775 -0.9375 4.875 C-3.71680854 6.39098648 -4.07115981 8.05867273 -5 11 C-5.66 11 -6.32 11 -7 11 C-8.14829977 13.269616 -9.29371978 15.54060778 -10.4375 17.8125 C-10.76298828 18.45509766 -11.08847656 19.09769531 -11.42382812 19.75976562 C-14.18868581 25.2609773 -15.18168835 29.3977671 -15.1875 35.5 C-15.19974609 36.17675781 -15.21199219 36.85351562 -15.22460938 37.55078125 C-15.23559396 41.26357044 -15.11344616 42.82983076 -13 46 C-15.37304528 45.05078189 -16.73034566 44.42916817 -18.109375 42.234375 C-20.97969527 35.03339608 -18.90180066 26.90395653 -16.32421875 19.921875 C-12.57509662 11.64947572 -7.09330137 5.56409614 0 0 Z " fill="#FCDEDD" transform="translate(175,105)"/>
<path d="M0 0 C3.27781605 2.71615547 4.7968983 6.30719257 6.57421875 10.07421875 C6.90291458 10.7580513 7.23161041 11.44188385 7.57026672 12.1464386 C8.61528447 14.32400598 9.6514823 16.50563856 10.6875 18.6875 C11.39590613 20.16759461 12.10488406 21.64741569 12.81445312 23.12695312 C14.54961145 26.7481655 16.27687341 30.37304796 18 34 C15 34 15 34 13.3125 32.8125 C11.59635305 30.44258278 11.76812892 28.85974334 12 26 C10.68 25.67 9.36 25.34 8 25 C8.33 26.98 8.66 28.96 9 31 C8.34 31 7.68 31 7 31 C4.69 26.05 2.38 21.1 0 16 C0.66 15.67 1.32 15.34 2 15 C2 15.66 2 16.32 2 17 C2.66 17 3.32 17 4 17 C4.33 17.99 4.66 18.98 5 20 C5.66 20.33 6.32 20.66 7 21 C7.33 19.68 7.66 18.36 8 17 C7.34 17 6.68 17 6 17 C6 16.34 6 15.68 6 15 C5.34 14.67 4.68 14.34 4 14 C3.63678515 12.33958925 3.31323028 10.67056149 3 9 C2.05897616 5.97961703 1.0354679 2.98918093 0 0 Z " fill="#B81E23" transform="translate(61,171)"/>
<path d="M0 0 C0.66 0.33 1.32 0.66 2 1 C-1.24296344 8.30119702 -1.24296344 8.30119702 -4.4375 11.25 C-11.52510376 18.85620892 -12.50147767 27.62977685 -12.25512695 37.56347656 C-12.18789739 39.37639926 -12.09658982 41.18840431 -12 43 C-15.39099558 39.75643901 -16.18311287 37.82379569 -16.3125 33.125 C-16.13156008 20.52500207 -10.39979665 10.57756878 -1.75 1.6875 C-1.1725 1.130625 -0.595 0.57375 0 0 Z " fill="#FCC5C6" transform="translate(172,189)"/>
<path d="M0 0 C1.27091492 0.24349686 1.27091492 0.24349686 2.56750488 0.49191284 C6.07482384 1.01107563 9.37569063 1.12703362 12.91992188 1.12939453 C13.91627403 1.13202301 13.91627403 1.13202301 14.93275452 1.13470459 C17.11144687 1.13907786 19.29005693 1.13620114 21.46875 1.1328125 C22.99279801 1.13348684 24.51684591 1.13445795 26.04089355 1.13571167 C29.22828195 1.13718251 32.41564223 1.13505382 35.60302734 1.13037109 C39.67825305 1.12467418 43.75341288 1.12795647 47.82863617 1.13394356 C50.97369885 1.13756573 54.11874604 1.13640297 57.2638092 1.13381577 C58.76603707 1.13315108 60.26826636 1.13395882 61.77049255 1.13629532 C63.87372537 1.13884909 65.97685309 1.13494305 68.08007812 1.12939453 C69.87161316 1.12820114 69.87161316 1.12820114 71.69934082 1.12698364 C74.88405283 1.00446074 77.87310495 0.5990874 81 0 C79.9486084 1.47573853 79.9486084 1.47573853 78 3 C74.81213379 3.38095093 74.81213379 3.38095093 70.82226562 3.38818359 C70.09512863 3.39344055 69.36799164 3.39869751 68.61882019 3.40411377 C66.21441184 3.41732141 63.81066513 3.40857339 61.40625 3.3984375 C59.73620476 3.40045803 58.06616038 3.40336928 56.39611816 3.40713501 C52.89566652 3.41155938 49.39544449 3.40512378 45.89501953 3.39111328 C41.40559869 3.37402119 36.91671586 3.38386179 32.42731476 3.40183067 C28.97865741 3.41266553 25.53012785 3.40922357 22.08146667 3.4014473 C20.42604 3.39944446 18.77060177 3.40190751 17.1151886 3.40888596 C14.80239074 3.41649572 12.49046704 3.40490388 10.17773438 3.38818359 C8.86107788 3.38579681 7.54442139 3.38341003 6.18786621 3.38095093 C3 3 3 3 1.0513916 1.47573853 C0.70443237 0.98874481 0.35747314 0.5017511 0 0 Z " fill="#FEECEC" transform="translate(166,226)"/>
<path d="M0 0 C0.33 0.66 0.66 1.32 1 2 C0.55011719 2.84820312 0.10023438 3.69640625 -0.36328125 4.5703125 C-2.34497511 8.7228834 -2.76870825 12.34129119 -3.1875 16.875 C-3.26935547 17.65875 -3.35121094 18.4425 -3.43554688 19.25 C-3.63411675 21.16561529 -3.81851747 23.08269042 -4 25 C-4.99 24.67 -5.98 24.34 -7 24 C-7 26.97 -7 29.94 -7 33 C-7.66 33 -8.32 33 -9 33 C-9.78477972 20.23424984 -7.85120208 10.46826944 0 0 Z " fill="#B41E23" transform="translate(168,115)"/>
<path d="M0 0 C0.33 0 0.66 0 1 0 C1.33 9.9 1.66 19.8 2 30 C1.01 30.33 0.02 30.66 -1 31 C-3.75096132 27.05296854 -4.91363648 23.83635685 -5 19 C-4.35675781 18.25363281 -3.71351562 17.50726563 -3.05078125 16.73828125 C-0.44974946 13.26528452 -0.41054774 10.98215193 -0.25 6.6875 C-0.19328125 5.43324219 -0.1365625 4.17898438 -0.078125 2.88671875 C-0.05234375 1.93410156 -0.0265625 0.98148437 0 0 Z " fill="#D0D0D0" transform="translate(54,269)"/>
<path d="M0 0 C4.19603268 4.99527701 6.2159053 10.57042348 7 17 C7.66 17 8.32 17 9 17 C8.67 18.32 8.34 19.64 8 21 C7.01 20.67 6.02 20.34 5 20 C5 19.01 5 18.02 5 17 C4.34 17 3.68 17 3 17 C3 16.34 3 15.68 3 15 C2.01 14.67 1.02 14.34 0 14 C-1.125 9.25 -1.125 9.25 0 7 C-0.33 6.67 -0.66 6.34 -1 6 C-1.66 5.34 -2.32 4.68 -3 4 C-2.67 3.01 -2.34 2.02 -2 1 C-1.34 0.67 -0.68 0.34 0 0 Z " fill="#C31015" transform="translate(60,171)"/>
<path d="M0 0 C0.99 0 1.98 0 3 0 C3.94220126 5.52708611 4.12116149 10.83758352 4.0625 16.4375 C4.05798828 17.26443359 4.05347656 18.09136719 4.04882812 18.94335938 C4.03715811 20.96227146 4.01922718 22.98114574 4 25 C3.34 25 2.68 25 2 25 C0.31557858 19.16420924 -0.26143011 14.05539796 -0.125 8 C-0.11597656 7.22527344 -0.10695313 6.45054688 -0.09765625 5.65234375 C-0.07439388 3.76809157 -0.0385364 1.88400168 0 0 Z " fill="#380000" transform="translate(109,50)"/>
<path d="M0 0 C3.91653251 3.49312359 6.86808258 6.81129054 8 12 C8.15113548 15.41892955 8.12587715 18.7870918 8.0078125 22.20703125 C7.79078113 24.95632371 7.79078113 24.95632371 9 27 C6.35261084 28.4606285 5.10551666 29 2 29 C2.33 28.113125 2.66 27.22625 3 26.3125 C4.71566103 20.20822779 5.41570729 12.66237322 3.1015625 6.67578125 C1.91634927 4.61137137 1.91634927 4.61137137 0 2 C0 1.34 0 0.68 0 0 Z " fill="#F5D1D2" transform="translate(218,126)"/>
<path d="M0 0 C3.5 0.375 3.5 0.375 6.5 3.375 C3.53 2.715 0.56 2.055 -2.5 1.375 C-2.5 2.365 -2.5 3.355 -2.5 4.375 C-3.139375 4.973125 -3.77875 5.57125 -4.4375 6.1875 C-6.97334819 8.87703596 -7.17116942 10.75786362 -7.5 14.375 C-8.49 13.055 -9.48 11.735 -10.5 10.375 C-11.82 13.015 -13.14 15.655 -14.5 18.375 C-15.16 18.375 -15.82 18.375 -16.5 18.375 C-16.9223968 14.06655261 -17.06269452 12.0823874 -14.3125 8.625 C-11.78771045 6.60516836 -9.29091299 4.99079173 -6.5 3.375 C-6.04625 2.818125 -5.5925 2.26125 -5.125 1.6875 C-3.5 0.375 -3.5 0.375 0 0 Z " fill="#FBD5D4" transform="translate(38.5,91.625)"/>
<path d="M0 0 C3.4776579 3.39485652 4.84948024 4.87110183 5.5 9.75 C5.335 10.8225 5.17 11.895 5 13 C4.01 13.66 3.02 14.32 2 15 C0 12 0 12 0 11 C-0.66 10.443125 -1.32 9.88625 -2 9.3125 C-4 7 -4 7 -4.25 3.75 C-4.1675 2.8425 -4.085 1.935 -4 1 C-2 0 -2 0 0 0 Z " fill="#BF1419" transform="translate(37,122)"/>
<path d="M0 0 C0.33 0.66 0.66 1.32 1 2 C0.67 2.99 0.34 3.98 0 5 C19.47 5 38.94 5 59 5 C59.495 6.98 59.495 6.98 60 9 C59.01 8.34 58.02 7.68 57 7 C54.27152477 6.67093706 54.27152477 6.67093706 51.15161133 6.68115234 C49.9505928 6.66128265 48.74957428 6.64141296 47.51216125 6.62094116 C46.21521835 6.60938995 44.91827545 6.59783875 43.58203125 6.5859375 C42.24109199 6.56722623 40.9001645 6.54765284 39.55924988 6.5272522 C36.0329991 6.47592035 32.50671013 6.43630052 28.98028564 6.39910889 C25.38064115 6.35907568 21.78115561 6.30798026 18.18164062 6.2578125 C11.12121015 6.16104095 4.06068001 6.07664019 -3 6 C-1.125 1.125 -1.125 1.125 0 0 Z " fill="#EA403F" transform="translate(188,204)"/>
<path d="M0 0 C0.99 0.33 1.98 0.66 3 1 C3 6.94 3 12.88 3 19 C1.68 19 0.36 19 -1 19 C-1.02683987 16.02077407 -1.04676037 13.04178705 -1.0625 10.0625 C-1.07087891 9.21236328 -1.07925781 8.36222656 -1.08789062 7.48632812 C-1.09111328 6.67744141 -1.09433594 5.86855469 -1.09765625 5.03515625 C-1.10289307 4.2862915 -1.10812988 3.53742676 -1.11352539 2.76586914 C-1 1 -1 1 0 0 Z " fill="#070707" transform="translate(205,285)"/>
<path d="M0 0 C1.21945313 -0.00515625 2.43890625 -0.0103125 3.6953125 -0.015625 C6.875 0.25 6.875 0.25 9.875 2.25 C6.575 2.25 3.275 2.25 -0.125 2.25 C-0.125 3.24 -0.125 4.23 -0.125 5.25 C-5.735 5.91 -11.345 6.57 -17.125 7.25 C-11.01076616 1.13576616 -8.43353665 -0.0358112 0 0 Z " fill="#B91B21" transform="translate(207.125,113.75)"/>
<path d="M0 0 C1.875 0.125 1.875 0.125 4 1 C4.69258229 2.99117408 5.35747635 4.9921136 6 7 C7.993252 8.87310888 7.993252 8.87310888 10 10 C9.6875 12.375 9.6875 12.375 9 15 C8.01 15.66 7.02 16.32 6 17 C5.73445313 16.37351563 5.46890625 15.74703125 5.1953125 15.1015625 C4.84210938 14.28429687 4.48890625 13.46703125 4.125 12.625 C3.77695313 11.81289062 3.42890625 11.00078125 3.0703125 10.1640625 C2.07553933 7.86197701 2.07553933 7.86197701 0 6 C-0.125 2.875 -0.125 2.875 0 0 Z " fill="#C20F14" transform="translate(69,196)"/>
<path d="M0 0 C2.52353628 3.78530441 1.83940533 4.65878102 1 9 C0.88565882 11.56071056 0.82525239 14.12426964 0.8125 16.6875 C0.79832031 17.99074219 0.78414062 19.29398438 0.76953125 20.63671875 C0.72941741 24.13202234 0.72941741 24.13202234 3 27 C0.6320544 26.05282176 -0.72965591 25.42685909 -2.11328125 23.2421875 C-5.08988565 15.71544335 -2.64840511 7.26734974 0 0 Z " fill="#FCC0BF" transform="translate(159,124)"/>
<path d="M0 0 C0.99 0.33 1.98 0.66 3 1 C4.95065425 5.3534469 5.22148123 9.14741951 5.125 13.875 C5.10695312 15.02742187 5.08890625 16.17984375 5.0703125 17.3671875 C5.03550781 18.67042969 5.03550781 18.67042969 5 20 C4.34 20 3.68 20 3 20 C2.67 16.37 2.34 12.74 2 9 C1.01 8.67 0.02 8.34 -1 8 C-1.33 6.35 -1.66 4.7 -2 3 C-1.34 3 -0.68 3 0 3 C0 2.01 0 1.02 0 0 Z " fill="#C11216" transform="translate(224,125)"/>
<path d="M0 0 C0.66 0.33 1.32 0.66 2 1 C-0.35264038 6.29672666 -2.748033 9.96608259 -7 14 C-7.8353125 15.3921875 -7.8353125 15.3921875 -8.6875 16.8125 C-9.120625 17.534375 -9.55375 18.25625 -10 19 C-10.66 19 -11.32 19 -12 19 C-11.07118861 11.10510321 -5.10841628 5.65369666 0 0 Z " fill="#F9DCDD" transform="translate(172,189)"/>
<path d="M0 0 C3 1 3 1 4.16796875 2.84765625 C4.50441406 3.57855469 4.84085937 4.30945313 5.1875 5.0625 C5.53167969 5.79597656 5.87585938 6.52945313 6.23046875 7.28515625 C6.48441406 7.85105469 6.73835938 8.41695312 7 9 C8.32 7.35 9.64 5.7 11 4 C13.64 9.61 16.28 15.22 19 21 C16 20 16 20 14.83203125 18.2578125 C14.32736328 17.20207031 14.32736328 17.20207031 13.8125 16.125 C13.46832031 15.42632812 13.12414062 14.72765625 12.76953125 14.0078125 C12 12 12 12 12 9 C11.01 9.33 10.02 9.66 9 10 C8.67 11.65 8.34 13.3 8 15 C5.51372483 11.9377256 3.90010596 8.8542946 2.3125 5.25 C1.87550781 4.26515625 1.43851562 3.2803125 0.98828125 2.265625 C0.66214844 1.51796875 0.33601563 0.7703125 0 0 Z " fill="#B5262C" transform="translate(69,203)"/>
<path d="M0 0 C0.33 0 0.66 0 1 0 C1.24363281 1.14855469 1.48726562 2.29710938 1.73828125 3.48046875 C3.09584934 8.91912857 5.68429489 13.54263474 8.34179688 18.43945312 C9.29713408 20.25823485 10.1561595 22.12688245 11 24 C10.67 24.99 10.34 25.98 10 27 C7.92684918 24.35426467 6.24442998 21.74508203 4.73828125 18.7421875 C4.14370117 17.55689453 4.14370117 17.55689453 3.53710938 16.34765625 C3.13298828 15.53167969 2.72886719 14.71570313 2.3125 13.875 C1.89677734 13.05128906 1.48105469 12.22757813 1.05273438 11.37890625 C0.66021484 10.59128906 0.26769531 9.80367187 -0.13671875 8.9921875 C-0.49467529 8.27401855 -0.85263184 7.55584961 -1.22143555 6.81591797 C-2 5 -2 5 -2 3 C-1.34 3 -0.68 3 0 3 C0 2.01 0 1.02 0 0 Z " fill="#FDC8C9" transform="translate(24,107)"/>
<path d="M0 0 C0.99 0 1.98 0 3 0 C1.65150163 4.35970831 -0.04907846 8.31341438 -2.125 12.375 C-2.66382812 13.43460938 -3.20265625 14.49421875 -3.7578125 15.5859375 C-4.16773437 16.38257813 -4.57765625 17.17921875 -5 18 C-5.66 18 -6.32 18 -7 18 C-6.68978386 11.02013687 -3.5048042 5.92708478 0 0 Z " fill="#FEE3E5" transform="translate(121,128)"/>
<path d="M0 0 C0.66 0.33 1.32 0.66 2 1 C2 7.93 2 14.86 2 22 C1.01 22 0.02 22 -1 22 C-1.0270817 19.27076612 -1.04687847 16.54180363 -1.0625 13.8125 C-1.07087891 13.04357422 -1.07925781 12.27464844 -1.08789062 11.48242188 C-1.10491934 7.51473211 -0.98604115 3.87428766 0 0 Z " fill="#080707" transform="translate(104,28)"/>
<path d="M0 0 C0.33 0 0.66 0 1 0 C2.0618048 12.30345239 2.0618048 12.30345239 -0.41796875 16.265625 C-3.83236853 19.26505509 -5.31792241 20 -10 20 C-10 20.66 -10 21.32 -10 22 C-11.32 21.67 -12.64 21.34 -14 21 C-13.34 20.34 -12.68 19.68 -12 19 C-12 18.67 -12 18.34 -12 18 C-10.906875 17.773125 -9.81375 17.54625 -8.6875 17.3125 C-5.00115243 16.32692203 -5.00115243 16.32692203 -3.125 13.9375 C-1.83856434 10.57847354 -1.46301516 7.5593815 -1.2109375 3.98828125 C-1 2 -1 2 0 0 Z " fill="#DF1D1E" transform="translate(184,129)"/>
<path d="M0 0 C0.66 0 1.32 0 2 0 C2 8.25 2 16.5 2 25 C1.01 25 0.02 25 -1 25 C-0.67 16.75 -0.34 8.5 0 0 Z " fill="#1C0000" transform="translate(164,50)"/>
<path d="M0 0 C0.33 0 0.66 0 1 0 C1 2.64 1 5.28 1 8 C1.99 8 2.98 8 4 8 C4 5.69 4 3.38 4 1 C5.65 1.33 7.3 1.66 9 2 C9 3.65 9 5.3 9 7 C8.01 7.33 7.02 7.66 6 8 C6 8.66 6 9.32 6 10 C0.25 9.25 0.25 9.25 -2 7 C-2.25 4.5 -2.25 4.5 -2 2 C-1.34 1.34 -0.68 0.68 0 0 Z " fill="#D12324" transform="translate(162,67)"/>
<path d="M0 0 C2.36581411 2.95976231 4.06471124 5.93699496 5.69921875 9.3515625 C6.18583984 10.36734375 6.67246094 11.383125 7.17382812 12.4296875 C7.67333984 13.48414063 8.17285156 14.53859375 8.6875 15.625 C9.19861328 16.6871875 9.70972656 17.749375 10.23632812 18.84375 C14 26.7429385 14 26.7429385 14 29 C13.34 29 12.68 29 12 29 C9.15075207 24.34622838 7.42881422 20.30702425 6 15 C5.34 14.01 4.68 13.02 4 12 C4 11.01 4 10.02 4 9 C3.34 9 2.68 9 2 9 C-0.29013653 5.5647952 -0.17842973 4.014669 0 0 Z " fill="#E02023" transform="translate(57,184)"/>
<path d="M0 0 C0.33 0 0.66 0 1 0 C1.33 2.64 1.66 5.28 2 8 C2.66 8 3.32 8 4 8 C4 5.36 4 2.72 4 0 C4.99 0.33 5.98 0.66 7 1 C7 3.97 7 6.94 7 10 C5 11 5 11 3.0625 10.875 C0.06265897 9.60234017 -0.70584313 7.92888134 -2 5 C-1.75495152 2.79456367 -1.57580336 1.57580336 0 0 Z " fill="#B5282B" transform="translate(109,67)"/>
<path d="M0 0 C0.33 0.66 0.66 1.32 1 2 C1.66 2 2.32 2 3 2 C1.68938409 6.23429756 0.05643741 10.07407404 -2 14 C-3.32 14 -4.64 14 -6 14 C-4.50829734 9.0276578 -2.39542583 4.58154261 0 0 Z " fill="#FBD6D5" transform="translate(127,114)"/>
<path d="M0 0 C0.66 0 1.32 0 2 0 C3.80230168 3.82989106 4.19622241 6.78121808 4 11 C5.65 11 7.3 11 9 11 C9 11.33 9 11.66 9 12 C6.03 12 3.06 12 0 12 C0.33 11.34 0.66 10.68 1 10 C0.13350534 8.01669827 0.13350534 8.01669827 -1 6 C-1.33 5.01 -1.66 4.02 -2 3 C-1.34 2.01 -0.68 1.02 0 0 Z " fill="#C3181F" transform="translate(80,219)"/>
<path d="M0 0 C0.66 1.32 1.32 2.64 2 4 C-3.17578125 7.22265625 -3.17578125 7.22265625 -5 8 C-5.99 7.67 -6.98 7.34 -8 7 C-8 8.32 -8 9.64 -8 11 C-10.475 10.01 -10.475 10.01 -13 9 C-8.91266859 5.55131413 -4.56194093 2.76206846 0 0 Z " fill="#E1181A" transform="translate(248,225)"/>
<path d="M0 0 C0.66 0.99 1.32 1.98 2 3 C0.73412642 5.58587003 -0.53745849 8.16865501 -1.8125 10.75 C-2.16892578 11.47960937 -2.52535156 12.20921875 -2.89257812 12.9609375 C-4.67530517 16.55910218 -6.41088339 19.89632709 -9 23 C-8.43997169 17.43527426 -6.3654757 13.0732061 -3.9375 8.125 C-3.37192383 6.949375 -3.37192383 6.949375 -2.79492188 5.75 C-1.87006766 3.83004947 -0.93596022 1.914561 0 0 Z " fill="#A54246" transform="translate(103,171)"/>
<path d="M0 0 C0.33 0 0.66 0 1 0 C1.35280275 6.494184 1.16916328 11.24855552 -2 17 C-2.99 17.99 -3.98 18.98 -5 20 C-5 14.06 -5 8.12 -5 2 C-2.32072659 6.01891012 -2.84398752 8.24161923 -3 13 C-2.34 13 -1.68 13 -1 13 C-0.67 8.71 -0.34 4.42 0 0 Z " fill="#B23C3E" transform="translate(230,132)"/>
<path d="M0 0 C1 3 1 3 0.00390625 5.26171875 C-0.47175781 6.06222656 -0.94742188 6.86273438 -1.4375 7.6875 C-2.14712891 8.89986328 -2.14712891 8.89986328 -2.87109375 10.13671875 C-3.24363281 10.75160156 -3.61617187 11.36648438 -4 12 C-4.66 12 -5.32 12 -6 12 C-5.67 8.7 -5.34 5.4 -5 2 C-3.68 2 -2.36 2 -1 2 C-0.67 1.34 -0.34 0.68 0 0 Z " fill="#DDDDDD" transform="translate(256,284)"/>
<path d="M0 0 C0.33 0.66 0.66 1.32 1 2 C0.32517578 3.27230469 0.32517578 3.27230469 -0.36328125 4.5703125 C-2.34497511 8.7228834 -2.76870825 12.34129119 -3.1875 16.875 C-3.26935547 17.65875 -3.35121094 18.4425 -3.43554688 19.25 C-3.63411675 21.16561529 -3.81851747 23.08269042 -4 25 C-4.33 25 -4.66 25 -5 25 C-5 21.04 -5 17.08 -5 13 C-5.66 12.67 -6.32 12.34 -7 12 C-6.02296079 10.1863523 -5.04330895 8.37411183 -4.0625 6.5625 C-3.51722656 5.55316406 -2.97195312 4.54382813 -2.41015625 3.50390625 C-1 1 -1 1 0 0 Z " fill="#B74E50" transform="translate(168,115)"/>
<path d="M0 0 C0.33 0 0.66 0 1 0 C1 1.65 1 3.3 1 5 C0.34 5 -0.32 5 -1 5 C-1.48108275 6.41601714 -1.95978141 7.83284437 -2.4375 9.25 C-2.70433594 10.03890625 -2.97117187 10.8278125 -3.24609375 11.640625 C-3.91954708 13.74821988 -4.49150595 15.84753973 -5 18 C-5.66 18 -6.32 18 -7 18 C-7 18.99 -7 19.98 -7 21 C-7.66 21 -8.32 21 -9 21 C-6.76686274 13.55620912 -3.59727921 6.88023305 0 0 Z " fill="#E02022" transform="translate(130,163)"/>
<path d="M0 0 C0.33 0.99 0.66 1.98 1 3 C1.66 3.33 2.32 3.66 3 4 C1.68 6.64 0.36 9.28 -1 12 C-2.32 12 -3.64 12 -5 12 C-3.68938409 7.76570244 -2.05643741 3.92592596 0 0 Z " fill="#FBD2D2" transform="translate(113,143)"/>
<path d="M0 0 C4.07611772 3.63545634 6.21436246 6.83104924 8 12 C8 13.32 8 14.64 8 16 C7.34 16 6.68 16 6 16 C5.67 16.99 5.34 17.98 5 19 C4.96132812 18.03900391 4.96132812 18.03900391 4.921875 17.05859375 C4.51767639 10.89456494 3.33953734 7.17089652 0 2 C0 1.34 0 0.68 0 0 Z " fill="#FBBABB" transform="translate(218,126)"/>
<path d="M0 0 C5.41538462 -0.36923077 5.41538462 -0.36923077 8.375 1.5 C8.91125 1.995 9.4475 2.49 10 3 C7.875 4.6875 7.875 4.6875 5 6 C1.6875 4.6875 1.6875 4.6875 -1 3 C-0.67 2.01 -0.34 1.02 0 0 Z " fill="#C40F14" transform="translate(207,115)"/>
<path d="M0 0 C2.5587038 3.17156698 4.33740054 6.46895487 6.125 10.125 C6.64320312 11.17945313 7.16140625 12.23390625 7.6953125 13.3203125 C8.12585938 14.20460937 8.55640625 15.08890625 9 16 C9.33 16.66 9.66 17.32 10 18 C6.68037594 16.94007569 5.90907543 15.85190728 4.04296875 12.8125 C3.41195975 11.54783626 2.79380112 10.27669326 2.1875 9 C1.86330078 8.35804688 1.53910156 7.71609375 1.20507812 7.0546875 C0.39823001 5.4029813 -0.30902354 3.70343441 -1 2 C-0.67 1.34 -0.34 0.68 0 0 Z " fill="#FBBFC0" transform="translate(73,212)"/>
<path d="M0 0 C1 2 1 2 0.4765625 3.7421875 C0.19554687 4.44601563 -0.08546875 5.14984375 -0.375 5.875 C-2.38220747 11.49334785 -2.70940301 17.07783372 -3 23 C-3.33 23 -3.66 23 -4 23 C-4.06058594 22.22914063 -4.12117187 21.45828125 -4.18359375 20.6640625 C-4.26738281 19.66117188 -4.35117188 18.65828125 -4.4375 17.625 C-4.51871094 16.62726563 -4.59992188 15.62953125 -4.68359375 14.6015625 C-4.84965626 12.02072387 -4.84965626 12.02072387 -6 10 C-4.78515625 7.6171875 -4.78515625 7.6171875 -3.0625 4.875 C-2.21365234 3.50988281 -2.21365234 3.50988281 -1.34765625 2.1171875 C-0.90292969 1.41851562 -0.45820313 0.71984375 0 0 Z " fill="#B74A4E" transform="translate(167,199)"/>
<path d="M0 0 C0 3.80345877 -1.13786331 4.77701015 -3.5 7.6875 C-4.1496875 8.49574219 -4.799375 9.30398437 -5.46875 10.13671875 C-5.9740625 10.75160156 -6.479375 11.36648437 -7 12 C-8.65 11.67 -10.3 11.34 -12 11 C-8.19588166 7.08060535 -4.18423892 3.50897269 0 0 Z " fill="#E61618" transform="translate(233,172)"/>
<path d="M0 0 C2.73816657 2.73816657 4.02844915 6.02782641 5.625 9.5 C5.94984375 10.18964844 6.2746875 10.87929687 6.609375 11.58984375 C9 16.74274554 9 16.74274554 9 19 C8.34 19 7.68 19 7 19 C6.74605469 18.45730469 6.49210937 17.91460937 6.23046875 17.35546875 C5.88628906 16.64003906 5.54210938 15.92460937 5.1875 15.1875 C4.85105469 14.47980469 4.51460937 13.77210938 4.16796875 13.04296875 C3.10526587 10.94605041 3.10526587 10.94605041 1.375 9.5 C0 8 0 8 -0.29296875 5.95703125 C-0.1953125 3.97135417 -0.09765625 1.98567708 0 0 Z " fill="#B52329" transform="translate(52,151)"/>
<path d="M0 0 C1.65 0 3.3 0 5 0 C5 0.99 5 1.98 5 3 C5.66 3 6.32 3 7 3 C7.33 4.98 7.66 6.96 8 9 C6.68 9 5.36 9 4 9 C4 7.68 4 6.36 4 5 C3.34 5 2.68 5 2 5 C2 4.01 2 3.02 2 2 C1.34 2 0.68 2 0 2 C0 1.34 0 0.68 0 0 Z " fill="#C50E13" transform="translate(43,146)"/>
<path d="M0 0 C-1.36983503 3.16115776 -1.9890638 3.9927092 -5 6 C-7.1875 5.625 -7.1875 5.625 -9 5 C-8.67 4.01 -8.34 3.02 -8 2 C-7.34 2 -6.68 2 -6 2 C-6 1.34 -6 0.68 -6 0 C-3.50907189 -1.24546405 -2.58919267 -0.7767578 0 0 Z " fill="#DBDBDB" transform="translate(227,294)"/>
<path d="M0 0 C6.27 0 12.54 0 19 0 C19 1.32 19 2.64 19 4 C17.906875 3.690625 16.81375 3.38125 15.6875 3.0625 C10.51723677 1.7536901 5.30738608 1.37073653 0 1 C0 0.67 0 0.34 0 0 Z " fill="#D8D8D8" transform="translate(128,0)"/>
<path d="M0 0 C0.33 0 0.66 0 1 0 C1.25 6.625 1.25 6.625 -1 10 C-1.66 10 -2.32 10 -3 10 C-3.66 11.65 -4.32 13.3 -5 15 C-5.99 15 -6.98 15 -8 15 C-7.38511719 14.12988281 -7.38511719 14.12988281 -6.7578125 13.2421875 C-3.78971393 8.93915465 -1.31573874 5.1313811 0 0 Z " fill="#DF1D21" transform="translate(248,150)"/>
<path d="M0 0 C1 3 1 3 0.22265625 4.82421875 C-0.8515625 6.54947917 -1.92578125 8.27473958 -3 10 C-3.66 10 -4.32 10 -5 10 C-4.56802365 5.2482602 -3.67230705 3.07999946 0 0 Z " fill="#FFE7E8" transform="translate(133,106)"/>
<path d="M0 0 C1.20628008 2.33214148 2.1654738 4.49642139 3 7 C2.01 7.33 1.02 7.66 0 8 C0 11.63 0 15.26 0 19 C-0.33 19 -0.66 19 -1 19 C-1.02714735 16.77090129 -1.04646254 14.54170633 -1.0625 12.3125 C-1.07990234 10.45044922 -1.07990234 10.45044922 -1.09765625 8.55078125 C-1.01478673 5.53764546 -0.70839449 2.91724661 0 0 Z " fill="#FCE9E8" transform="translate(165,205)"/>
<path d="M0 0 C0.66 0.33 1.32 0.66 2 1 C1.51789063 1.38671875 1.03578125 1.7734375 0.5390625 2.171875 C-0.09257812 2.69265625 -0.72421875 3.2134375 -1.375 3.75 C-2.31472656 4.51570312 -2.31472656 4.51570312 -3.2734375 5.296875 C-5.08312318 7.08199481 -6.00117455 8.67949644 -7 11 C-7.33 10.34 -7.66 9.68 -8 9 C-8.66 8.67 -9.32 8.34 -10 8 C-6.7 5.36 -3.4 2.72 0 0 Z " fill="#FEDFDB" transform="translate(186,178)"/>
<path d="M0 0 C2.67438936 2.38335287 4.15158012 4.87036148 5.75 8.0625 C6.19859375 8.94035156 6.6471875 9.81820312 7.109375 10.72265625 C7.40328125 11.47417969 7.6971875 12.22570312 8 13 C7.67 13.66 7.34 14.32 7 15 C3.97047604 13.48523802 3.62906229 11.14631984 2.375 8.0625 C1.92898437 6.98097656 1.48296875 5.89945313 1.0234375 4.78515625 C0 2 0 2 0 0 Z " fill="#B42C31" transform="translate(61,171)"/>
<path d="M0 0 C0.33 0.66 0.66 1.32 1 2 C-0.75 4 -0.75 4 -3 6 C-4.32 6 -5.64 6 -7 6 C-7 6.66 -7 7.32 -7 8 C-8.32 7.67 -9.64 7.34 -11 7 C-10.34 6.34 -9.68 5.68 -9 5 C-9 4.67 -9 4.34 -9 4 C-7.88625 3.71125 -6.7725 3.4225 -5.625 3.125 C-1.99708908 2.30758671 -1.99708908 2.30758671 0 0 Z " fill="#E22227" transform="translate(181,143)"/>
<path d="M0 0 C4.86360359 -0.39865603 9.20653152 0.0413063 14 1 C14 1.33 14 1.66 14 2 C8.39 2.66 2.78 3.32 -3 4 C-2.01 2.68 -1.02 1.36 0 0 Z " fill="#E92B2E" transform="translate(193,117)"/>
<path d="M0 0 C0.33 0 0.66 0 1 0 C1.48828125 1.98567708 1.9765625 3.97135417 2.46484375 5.95703125 C2.91010705 7.65683202 3.44433985 9.33301954 4 11 C3.34 11.66 2.68 12.32 2 13 C1.32845067 11.71086513 0.66291141 10.41859796 0 9.125 C-0.37125 8.40570313 -0.7425 7.68640625 -1.125 6.9453125 C-2 5 -2 5 -2 3 C-1.34 3 -0.68 3 0 3 C0 2.01 0 1.02 0 0 Z " fill="#FAB9B9" transform="translate(24,107)"/>
<path d="M0 0 C0.99 0.33 1.98 0.66 3 1 C2.25 5.75 2.25 5.75 0 8 C-0.99 8 -1.98 8 -3 8 C-1.125 2.25 -1.125 2.25 0 0 Z " fill="#FBD1D1" transform="translate(95,180)"/>
<path d="M0 0 C0.66 0 1.32 0 2 0 C2 0.99 2 1.98 2 3 C2.66 3 3.32 3 4 3 C7.06666667 7.6 7.06666667 7.6 6.5625 10.625 C6.2840625 11.800625 6.2840625 11.800625 6 13 C4.43926745 10.65890118 3.13626133 8.43666597 1.875 5.9375 C1.34519531 4.89916016 1.34519531 4.89916016 0.8046875 3.83984375 C0 2 0 2 0 0 Z " fill="#B22022" transform="translate(43,148)"/>
<path d="M0 0 C5.03985731 0.44469329 7.37634988 2.71343362 11 6 C8 7 8 7 5.5 5.8125 C3.0806818 4.05849431 1.62617349 2.48205427 0 0 Z " fill="#EE2F2F" transform="translate(207,119)"/>
<path d="M0 0 C0.99 0.33 1.98 0.66 3 1 C2.67 1.33 2.34 1.66 2 2 C1.92773498 3.85287502 1.9161878 5.70833878 1.9375 7.5625 C1.94652344 8.57441406 1.95554687 9.58632812 1.96484375 10.62890625 C1.97644531 11.41136719 1.98804688 12.19382812 2 13 C1.34 12.67 0.68 12.34 0 12 C0 11.01 0 10.02 0 9 C-0.66 9 -1.32 9 -2 9 C-2 7.68 -2 6.36 -2 5 C-1.34 5 -0.68 5 0 5 C0 3.35 0 1.7 0 0 Z " fill="#E6201E" transform="translate(21,101)"/>
<path d="M0 0 C2.97246802 2.54782974 4.41535288 5.45340883 6 9 C6 9.66 6 10.32 6 11 C5.34 11 4.68 11 4 11 C0 4.5 0 4.5 0 0 Z " fill="#DD1212" transform="translate(65,202)"/>
<path d="M0 0 C0.66 0.33 1.32 0.66 2 1 C1.01 2.98 0.02 4.96 -1 7 C-2.32 7 -3.64 7 -5 7 C-3.70700306 4.11562221 -2.34058637 2.12780579 0 0 Z " fill="#FCD5D0" transform="translate(172,189)"/>
<path d="M0 0 C2.86453858 3.41016497 4.34703566 6.90694544 6 11 C5.01 11.495 5.01 11.495 4 12 C4 11.34 4 10.68 4 10 C3.34 10 2.68 10 2 10 C0.68373308 6.38026598 0 3.90432869 0 0 Z " fill="#B62C30" transform="translate(46,139)"/>
<path d="M0 0 C0.66 0.33 1.32 0.66 2 1 C0.5 3 0.5 3 -2 5 C-4.75871627 5.35800135 -7.20097524 5.18660165 -10 5 C-6.73454239 3.11608215 -3.71888239 2.50712033 0 2 C0 1.34 0 0.68 0 0 Z " fill="#B3070C" transform="translate(95,227)"/>
<path d="M0 0 C0.66 0 1.32 0 2 0 C0.25 5.75 0.25 5.75 -2 8 C-2.66 6.02 -3.32 4.04 -4 2 C-2.68 2.33 -1.36 2.66 0 3 C0 2.01 0 1.02 0 0 Z " fill="#D81819" transform="translate(93,180)"/>
<path d="M0 0 C1.65 0.33 3.3 0.66 5 1 C2.51047079 3.66735273 0.36591866 5.55746343 -3 7 C-3 4 -3 4 -1 2 C-0.67 1.34 -0.34 0.68 0 0 Z " fill="#FEE0DD" transform="translate(220,178)"/>
<path d="M0 0 C0.66 0 1.32 0 2 0 C1.46884894 4.51478398 -0.36620292 7.34666857 -3 11 C-3.33 9.68 -3.66 8.36 -4 7 C-3.34 7 -2.68 7 -2 7 C-1.855625 6.401875 -1.71125 5.80375 -1.5625 5.1875 C-1.1127561 3.43849596 -0.57107659 1.71322977 0 0 Z " fill="#FFDAD9" transform="translate(245,153)"/>
<path d="M0 0 C0.66 0 1.32 0 2 0 C2.33 1.65 2.66 3.3 3 5 C1.35 5.33 -0.3 5.66 -2 6 C-1.125 1.125 -1.125 1.125 0 0 Z " fill="#C30F14" transform="translate(29,108)"/>
<path d="M0 0 C0 0.66 0 1.32 0 2 C-0.99 2 -1.98 2 -3 2 C-3 2.66 -3 3.32 -3 4 C-3.99 4 -4.98 4 -6 4 C-6.33 4.99 -6.66 5.98 -7 7 C-7.99 6.67 -8.98 6.34 -10 6 C-7.35570758 3.077361 -4.105808 0 0 0 Z " fill="#FEDFE1" transform="translate(187,99)"/>
<path d="M0 0 C-1.0625 1.5625 -1.0625 1.5625 -3 3 C-6.6875 2.6875 -6.6875 2.6875 -10 2 C-6.5980513 -0.09350689 -3.94727588 -0.17942163 0 0 Z " fill="#F5D1D1" transform="translate(100,223)"/>
<path d="M0 0 C0.66 0.33 1.32 0.66 2 1 C-0.23407889 4.35111834 -1.26215824 5.81553956 -5.25 6.8125 C-6.61125 6.9053125 -6.61125 6.9053125 -8 7 C-5.53058944 4.40062046 -2.81939117 2.20979308 0 0 Z " fill="#FEDEDB" transform="translate(213,161)"/>
<path d="M0 0 C0 3 0 6 0 9 C-2.15377564 6.37801226 -3.40072174 4.35595828 -4 1 C-2.68 0.67 -1.36 0.34 0 0 Z " fill="#BB2529" transform="translate(39,131)"/>
<path d="M0 0 C0.66 0 1.32 0 2 0 C2 2.31 2 4.62 2 7 C1.01 7 0.02 7 -1 7 C-1.04254356 5.00045254 -1.04080783 2.99958364 -1 1 C-0.67 0.67 -0.34 0.34 0 0 Z " fill="#090202" transform="translate(164,68)"/>
<path d="M0 0 C0.66 0.33 1.32 0.66 2 1 C2 3.31 2 5.62 2 8 C1.34 8 0.68 8 0 8 C-0.38063221 5.6739143 -0.71269945 3.33944736 -1 1 C-0.67 0.67 -0.34 0.34 0 0 Z " fill="#070204" transform="translate(111,67)"/>
<path d="M0 0 C0.66 0.33 1.32 0.66 2 1 C0.7260411 3.03833424 -0.61061923 5.03852126 -2 7 C-2.66 7 -3.32 7 -4 7 C-3.43628586 3.73045798 -2.50037734 2.17424117 0 0 Z " fill="#CACACA" transform="translate(42,291)"/>
<path d="M0 0 C1.98 0.495 1.98 0.495 4 1 C4 1.99 4 2.98 4 4 C2.35 4 0.7 4 -1 4 C-0.67 2.68 -0.34 1.36 0 0 Z " fill="#272727" transform="translate(204,278)"/>
<path d="M0 0 C0.99 0.33 1.98 0.66 3 1 C-0.465 3.97 -0.465 3.97 -4 7 C-4.33 6.01 -4.66 5.02 -5 4 C-4.01 4 -3.02 4 -2 4 C-1.34 2.68 -0.68 1.36 0 0 Z " fill="#FEDBD9" transform="translate(230,172)"/>
<path d="M0 0 C1.65 0.33 3.3 0.66 5 1 C2.94766315 3.2477975 1.99332739 4.0022242 -1 5 C-0.67 3.35 -0.34 1.7 0 0 Z " fill="#E31212" transform="translate(189,172)"/>
<path d="M0 0 C0.66 0.33 1.32 0.66 2 1 C1.34 2.98 0.68 4.96 0 7 C-0.33 6.34 -0.66 5.68 -1 5 C-1.66 4.67 -2.32 4.34 -3 4 C-2.67 3.01 -2.34 2.02 -2 1 C-1.34 0.67 -0.68 0.34 0 0 Z " fill="#FEDDDA" transform="translate(109,154)"/>
<path d="M0 0 C0.66 0 1.32 0 2 0 C2 0.66 2 1.32 2 2 C2.66 2 3.32 2 4 2 C4.33 3.65 4.66 5.3 5 7 C4.01 7.495 4.01 7.495 3 8 C0 2.25 0 2.25 0 0 Z " fill="#FDE7E5" transform="translate(31,106)"/>
<path d="M0 0 C0.99 0 1.98 0 3 0 C2.67 2.31 2.34 4.62 2 7 C1.34 7 0.68 7 0 7 C0 4.69 0 2.38 0 0 Z " fill="#FFE7E8" transform="translate(22,103)"/>
<path d="M0 0 C2.75 -0.25 2.75 -0.25 6 0 C8.375 2 8.375 2 10 4 C6.20696275 2.99806563 3.28463659 2.18975773 0 0 Z " fill="#FECFCC" transform="translate(147,92)"/>
<path d="M0 0 C0.33 0 0.66 0 1 0 C1.125 2.875 1.125 2.875 1 6 C0.34 6.66 -0.32 7.32 -1 8 C-2 7 -2 7 -2.1875 4.5625 C-2 2 -2 2 0 0 Z " fill="#F5DDDD" transform="translate(162,67)"/>
<path d="M0 0 C0.99 0.33 1.98 0.66 3 1 C3 2.98 3 4.96 3 7 C2.01 7.495 2.01 7.495 1 8 C0.67 5.36 0.34 2.72 0 0 Z " fill="#F6DCDA" transform="translate(113,67)"/>
<path d="M0 0 C0.66 0.33 1.32 0.66 2 1 C0.02 3.31 -1.96 5.62 -4 8 C-4.66 7.67 -5.32 7.34 -6 7 C-4.02 4.69 -2.04 2.38 0 0 Z " fill="#DADADA" transform="translate(231,295)"/>
<path d="M0 0 C0 3.52032428 -0.70351351 4.4385343 -3 7 C-3.66 7 -4.32 7 -5 7 C-3.75023244 3.34683329 -3.32901247 2.21934164 0 0 Z " fill="#D1D1D1" transform="translate(174,291)"/>
<path d="M0 0 C0.33 0.66 0.66 1.32 1 2 C0.67 2.99 0.34 3.98 0 5 C1.65 5 3.3 5 5 5 C5 5.33 5 5.66 5 6 C2.36 6 -0.28 6 -3 6 C-1.125 1.125 -1.125 1.125 0 0 Z " fill="#DF3C41" transform="translate(188,204)"/>
<path d="M0 0 C0.1875 2.375 0.1875 2.375 0 5 C-0.99 5.66 -1.98 6.32 -3 7 C-3.66 6.01 -4.32 5.02 -5 4 C-1.125 0 -1.125 0 0 0 Z " fill="#C40E18" transform="translate(42,130)"/>
<path d="M0 0 C2.15377564 2.62198774 3.40072174 4.64404172 4 8 C3.01 8.495 3.01 8.495 2 9 C0.14223235 5.86501708 -0.20140476 3.62528568 0 0 Z " fill="#F9C0BF" transform="translate(31,125)"/>
<path d="M0 0 C3.63 0 7.26 0 11 0 C11 0.33 11 0.66 11 1 C7.7 1.66 4.4 2.32 1 3 C0.67 2.01 0.34 1.02 0 0 Z " fill="#E21617" transform="translate(142,91)"/>
<path d="M0 0 C0.99 0.33 1.98 0.66 3 1 C2.625 3.4375 2.625 3.4375 2 6 C1.01 6.495 1.01 6.495 0 7 C0 4.69 0 2.38 0 0 Z " fill="#EDC8C7" transform="translate(166,68)"/>
<path d="M0 0 C0.33 0 0.66 0 1 0 C1 2.64 1 5.28 1 8 C-0.5625 6.75 -0.5625 6.75 -2 5 C-1.74853421 2.86254078 -1.54074221 1.54074221 0 0 Z " fill="#F8C2BF" transform="translate(109,67)"/>
</svg>
